<svg width="34" height="38" viewBox="0 0 34 38" fill="none" xmlns="http://www.w3.org/2000/svg">
<path d="M7.20722 27.2382C5.49134 29.8342 7.22939 32.8481 7.22939 32.8481C7.22939 32.8481 10.6833 33.266 12.3992 30.67M11.6948 16.2163C5.00693 16.4585 4.17116 23.3664 4.17116 23.3664L9.78104 23.3442M21.3402 22.5917C23.7383 28.8395 17.7106 32.3156 17.7106 32.3156L15.5325 27.1458M23.3072 19.9826L14.973 26.776L9.78104 23.3442L12.7648 13.0144C13.1837 11.5631 13.9486 10.235 14.9937 9.14433C16.0388 8.05363 17.333 7.23284 18.7652 6.75241L24.9711 4.67162C25.1056 4.62643 25.2486 4.61251 25.3894 4.63091C25.5301 4.6493 25.6647 4.69953 25.7831 4.77778C25.9015 4.85602 26.0005 4.96023 26.0725 5.08247C26.1446 5.20471 26.1878 5.34176 26.199 5.48323L26.7167 12.0082C26.836 13.514 26.5881 15.0264 25.9942 16.4154C25.4003 17.8043 24.4783 19.0284 23.3072 19.9826V19.9826Z" stroke="#2F3C7E" stroke-width="1.5" stroke-linecap="round" stroke-linejoin="round"/>
<path d="M17.5236 17.2736C16.8351 16.8185 16.3556 16.1086 16.1905 15.2999C16.0255 14.4913 16.1884 13.6502 16.6435 12.9617C17.0986 12.2732 17.8085 11.7937 18.6172 11.6286C19.4258 11.4636 20.2669 11.6265 20.9554 12.0816C21.6439 12.5367 22.1234 13.2466 22.2884 14.0553C22.4535 14.8639 22.2906 15.705 21.8355 16.3935C21.3804 17.082 20.6705 17.5615 19.8618 17.7266C19.0532 17.8916 18.2121 17.7287 17.5236 17.2736Z" stroke="#2F3C7E" stroke-width="1.5" stroke-linecap="round" stroke-linejoin="round"/>
</svg>
