<svg width="100" height="100" viewBox="0 0 100 100" fill="none" xmlns="http://www.w3.org/2000/svg">
<path d="M100 50C100 77.6142 77.6142 100 50 100C22.3858 100 0 77.6142 0 50C0 22.3858 22.3858 0 50 0C77.6142 0 100 22.3858 100 50Z" fill="#0F7ADC"/>
<path d="M66.5574 53.3661C72.0947 54.6766 76.5756 57.2613 80 61.1202C83.4973 64.9062 85.2459 69.6752 85.2459 75.4271C85.2459 83.072 82.6594 89.0787 77.4863 93.4472C72.3133 97.8157 65.9745 100 58.4699 100C52.6412 100 47.3953 98.653 42.7322 95.9591C38.1421 93.2652 34.827 89.3335 32.7869 84.1641L43.4973 77.939C45.7559 84.4918 50.7468 87.7681 58.4699 87.7681C62.8415 87.7681 66.3024 86.676 68.8525 84.4918C71.4026 82.2347 72.6776 79.2131 72.6776 75.4271C72.6776 71.641 71.4026 68.6559 68.8525 66.4716C66.3024 64.2874 62.8415 63.1952 58.4699 63.1952H55.6284L50.6011 55.6595L67.1038 33.9262H35.082V22.1311H82.0765V32.834L66.5574 53.3661Z" fill="white"/>
</svg>
