<svg width="177" height="95" viewBox="0 0 177 95" fill="none" xmlns="http://www.w3.org/2000/svg">
<path fill-rule="evenodd" clip-rule="evenodd" d="M47.2154 94.4319C73.2918 94.4319 94.4309 73.2928 94.4309 47.2164C94.4309 21.1401 73.2918 0.000976562 47.2154 0.000976562C21.1391 0.000976562 0 21.1401 0 47.2164C0 73.2928 21.1391 94.4319 47.2154 94.4319ZM47.2154 40.7158H42.4939V72.1928H47.2154V40.7158Z" fill="white"/>
<path d="M47.0946 72.0287V40.5518H42.373V72.0287H47.0946Z" fill="#1570D1"/>
<path d="M56.5767 69.559L56.5793 69.5606C58.2955 70.5843 60.2922 71.0922 62.5612 71.0922C65.213 71.0922 67.3967 70.4662 69.0927 69.1942L69.0933 69.1938C70.8031 67.9039 72.0492 66.2523 72.8288 64.2433L72.9535 63.9218H72.6087H68.9951H68.8544L68.7875 64.0456C68.2191 65.097 67.4239 65.9641 66.3983 66.6483C65.3872 67.2937 64.1272 67.6235 62.6053 67.6235C61.1711 67.6235 59.9196 67.3227 58.8436 66.7286C57.761 66.1015 56.8943 65.277 56.2402 64.2543C55.6565 63.2716 55.2694 62.2024 55.0795 61.0448H73.2697H73.5058V60.8087V59.4867C73.5058 57.3379 73.0579 55.3907 72.1577 53.6501C71.2571 51.8791 69.9644 50.4807 68.2825 49.459C66.6228 48.4035 64.6387 47.8811 62.3409 47.8811C60.0713 47.8811 58.088 48.404 56.4001 49.4586C54.7179 50.4803 53.4249 51.8789 52.5241 53.6501C51.6239 55.3908 51.176 57.3379 51.176 59.4867C51.176 61.6082 51.6395 63.5559 52.5692 65.3253L52.5692 65.3253L52.5707 65.328C53.5305 67.0976 54.8667 68.509 56.5767 69.559ZM69.5526 57.4879H55.1334C55.4767 55.7753 56.2312 54.3408 57.395 53.1766C58.636 51.9644 60.2766 51.3499 62.3409 51.3499C64.4058 51.3499 66.0467 51.9647 67.2878 53.1775C68.4793 54.342 69.2345 55.776 69.5526 57.4879Z" fill="#1570D1" stroke="#1570D1" stroke-width="0.472154"/>
<path d="M138.647 71.3525C136.415 71.3525 134.461 70.8531 132.786 69.8542C131.112 68.826 129.805 67.4452 128.864 65.7119C127.954 63.9785 127.498 62.0689 127.498 59.9831C127.498 57.8678 127.939 55.9582 128.82 54.2543C129.702 52.5209 130.965 51.1548 132.61 50.156C134.255 49.1277 136.194 48.6136 138.427 48.6136C140.689 48.6136 142.628 49.1277 144.244 50.156C145.889 51.1548 147.153 52.5209 148.034 54.2543C148.915 55.9582 149.356 57.8678 149.356 59.9831V61.3051H130.892C131.068 62.5977 131.479 63.7876 132.125 64.8746C132.801 65.9322 133.697 66.7842 134.814 67.4305C135.93 68.0475 137.223 68.3559 138.692 68.3559C140.249 68.3559 141.556 68.0181 142.614 67.3424C143.671 66.6373 144.494 65.7412 145.081 64.6542H148.695C147.931 66.6226 146.712 68.2384 145.037 69.5017C143.392 70.7356 141.262 71.3525 138.647 71.3525ZM130.936 58.2204H145.919C145.625 56.3401 144.832 54.7684 143.539 53.5051C142.246 52.2418 140.542 51.6102 138.427 51.6102C136.312 51.6102 134.608 52.2418 133.315 53.5051C132.052 54.7684 131.259 56.3401 130.936 58.2204Z" fill="white"/>
<path d="M132.786 69.8542L132.539 70.2566L132.545 70.2597L132.786 69.8542ZM128.864 65.7119L128.446 65.9315L128.449 65.937L128.864 65.7119ZM128.82 54.2543L129.24 54.4712L129.241 54.4683L128.82 54.2543ZM132.61 50.156L132.855 50.5596L132.86 50.5563L132.61 50.156ZM144.244 50.156L143.991 50.5544L143.999 50.5595L144.244 50.156ZM148.034 54.2543L147.613 54.4683L147.614 54.4712L148.034 54.2543ZM149.356 61.3051V61.7772H149.828V61.3051H149.356ZM130.892 61.3051V60.8329H130.351L130.424 61.3689L130.892 61.3051ZM132.125 64.8746L131.72 65.1159L131.723 65.1224L131.728 65.1288L132.125 64.8746ZM134.814 67.4305L134.577 67.8392L134.585 67.8438L134.814 67.4305ZM142.614 67.3424L142.868 67.7403L142.875 67.7352L142.614 67.3424ZM145.081 64.6542V64.1821H144.8L144.666 64.4297L145.081 64.6542ZM148.695 64.6542L149.135 64.8251L149.385 64.1821H148.695V64.6542ZM145.037 69.5017L145.321 69.8794L145.322 69.8786L145.037 69.5017ZM130.936 58.2204L130.47 58.1404L130.375 58.6925H130.936V58.2204ZM145.919 58.2204V58.6925H146.47L146.385 58.1475L145.919 58.2204ZM143.539 53.5051L143.869 53.1674L143.539 53.5051ZM133.315 53.5051L132.985 53.1674L132.981 53.1712L133.315 53.5051ZM138.647 70.8804C136.487 70.8804 134.62 70.398 133.028 69.4487L132.545 70.2597C134.302 71.3083 136.342 71.8247 138.647 71.8247V70.8804ZM133.033 69.4519C131.43 68.4671 130.18 67.1476 129.279 65.4868L128.449 65.937C129.429 67.7428 130.794 69.1849 132.539 70.2566L133.033 69.4519ZM129.282 65.4923C128.41 63.8311 127.97 61.9976 127.97 59.9831H127.026C127.026 62.1403 127.498 64.126 128.446 65.9315L129.282 65.4923ZM127.97 59.9831C127.97 57.9354 128.396 56.1014 129.24 54.4712L128.401 54.0373C127.481 55.815 127.026 57.8002 127.026 59.9831H127.97ZM129.241 54.4683C130.083 52.8124 131.286 51.5123 132.855 50.5595L132.365 49.7524C130.644 50.7973 129.32 52.2294 128.399 54.0403L129.241 54.4683ZM132.86 50.5563C134.42 49.5817 136.269 49.0857 138.427 49.0857V48.1414C136.119 48.1414 134.091 48.6737 132.36 49.7556L132.86 50.5563ZM138.427 49.0857C140.616 49.0857 142.463 49.5824 143.991 50.5543L144.498 49.7576C142.793 48.673 140.763 48.1414 138.427 48.1414V49.0857ZM143.999 50.5595C145.568 51.5123 146.771 52.8124 147.613 54.4683L148.455 54.0403C147.534 52.2294 146.21 50.7973 144.489 49.7524L143.999 50.5595ZM147.614 54.4712C148.458 56.1014 148.884 57.9354 148.884 59.9831H149.828C149.828 57.8002 149.373 55.815 148.453 54.0373L147.614 54.4712ZM148.884 59.9831V61.3051H149.828V59.9831H148.884ZM149.356 60.8329H130.892V61.7772H149.356V60.8329ZM130.424 61.3689C130.608 62.7222 131.04 63.9727 131.72 65.1159L132.531 64.6333C131.918 63.6024 131.527 62.4733 131.359 61.2413L130.424 61.3689ZM131.728 65.1288C132.445 66.2519 133.397 67.1561 134.577 67.8391L135.05 67.0219C133.997 66.4123 133.157 65.6126 132.523 64.6204L131.728 65.1288ZM134.585 67.8438C135.781 68.5049 137.155 68.8281 138.692 68.8281V67.8838C137.29 67.8838 136.078 67.5901 135.042 67.0173L134.585 67.8438ZM138.692 68.8281C140.317 68.8281 141.718 68.4749 142.868 67.7403L142.359 66.9445C141.394 67.5612 140.18 67.8838 138.692 67.8838V68.8281ZM142.875 67.7352C143.995 66.9887 144.871 66.0356 145.497 64.8788L144.666 64.4297C144.116 65.4469 143.347 66.2859 142.352 66.9495L142.875 67.7352ZM145.081 65.1264H148.695V64.1821H145.081V65.1264ZM148.255 64.4834C147.522 66.3705 146.357 67.9147 144.753 69.1248L145.322 69.8786C147.067 68.5621 148.34 66.8747 149.135 64.8251L148.255 64.4834ZM144.754 69.124C143.21 70.2817 141.188 70.8804 138.647 70.8804V71.8247C141.336 71.8247 143.574 71.1895 145.321 69.8794L144.754 69.124ZM130.936 58.6925H145.919V57.7482H130.936V58.6925ZM146.385 58.1475C146.076 56.1722 145.239 54.5058 143.869 53.1674L143.209 53.8428C144.425 55.0309 145.173 56.508 145.452 58.2932L146.385 58.1475ZM143.869 53.1674C142.473 51.8033 140.643 51.138 138.427 51.138V52.0823C140.442 52.0823 142.019 52.6803 143.209 53.8428L143.869 53.1674ZM138.427 51.138C136.211 51.138 134.381 51.8033 132.985 53.1674L133.645 53.8428C134.835 52.6803 136.413 52.0823 138.427 52.0823V51.138ZM132.981 53.1712C131.644 54.5083 130.809 56.1709 130.47 58.1404L131.401 58.3003C131.709 56.5094 132.46 55.0284 133.649 53.839L132.981 53.1712Z" fill="white"/>
<path d="M91.0316 69.6366C90.2022 69.6366 89.4359 69.6264 88.728 69.6036C80.1423 69.3274 80.1424 67.2101 80.1426 59.2202L80.1426 47.5332M81.7207 57.6031H86.4422" stroke="#1570D1" stroke-width="4.72154"/>
<path d="M110.374 70.9805V56.029C110.374 52.9867 107.908 50.5205 104.866 50.5205V50.5205C101.824 50.5205 99.3574 52.9867 99.3574 56.029V70.9805" stroke="white" stroke-width="4.72154"/>
<path d="M121.39 70.9805V56.029C121.39 52.9867 118.924 50.5205 115.882 50.5205V50.5205C112.839 50.5205 110.373 52.9867 110.373 56.029V70.9805" stroke="white" stroke-width="4.72154"/>
<path d="M176.004 61.3802V56.0291V42.6514H171.934V66.0624L176.004 61.3802Z" fill="white"/>
<ellipse cx="165" cy="60.5" rx="9" ry="8.5" stroke="white" stroke-width="4.72154"/>
</svg>
