<svg width="251" height="140" viewBox="0 0 251 140" fill="none" xmlns="http://www.w3.org/2000/svg">
<path fill-rule="evenodd" clip-rule="evenodd" d="M70.2154 134.431C107.338 134.431 137.431 104.338 137.431 67.2154C137.431 30.0934 107.338 0 70.2154 0C33.0934 0 3 30.0934 3 67.2154C3 104.338 33.0934 134.431 70.2154 134.431Z" fill="white"/>
<path d="M198.005 106.502C194.826 106.502 192.045 105.791 189.661 104.369C187.277 102.905 185.416 100.939 184.078 98.4719C182.781 96.0043 182.133 93.2858 182.133 90.3164C182.133 87.3051 182.76 84.5867 184.015 82.1609C185.27 79.6934 187.068 77.7486 189.41 76.3266C191.752 74.8628 194.513 74.1309 197.691 74.1309C200.911 74.1309 203.672 74.8628 205.972 76.3266C208.314 77.7486 210.113 79.6934 211.367 82.1609C212.622 84.5867 213.249 87.3051 213.249 90.3164V92.1984H186.964C187.214 94.0386 187.8 95.7325 188.72 97.2799C189.682 98.7855 190.958 99.9984 192.547 100.919C194.136 101.797 195.976 102.236 198.068 102.236C200.284 102.236 202.145 101.755 203.651 100.793C205.157 99.7893 206.328 98.5137 207.164 96.9662H212.308C211.221 99.7684 209.485 102.069 207.101 103.867C204.759 105.624 201.727 106.502 198.005 106.502ZM187.026 87.807H208.356C207.938 85.1304 206.809 82.8928 204.968 81.0944C203.128 79.2961 200.702 78.3969 197.691 78.3969C194.68 78.3969 192.254 79.2961 190.414 81.0944C188.616 82.8928 187.486 85.1304 187.026 87.807Z" fill="white"/>
<path d="M189.661 104.369L189.309 104.942L189.317 104.946L189.661 104.369ZM184.078 98.4719L183.483 98.7845L183.487 98.7923L184.078 98.4719ZM184.015 82.1609L184.612 82.4697L184.614 82.4656L184.015 82.1609ZM189.41 76.3266L189.759 76.9012L189.766 76.8966L189.41 76.3266ZM205.972 76.3266L205.611 76.8937L205.617 76.8975L205.623 76.9012L205.972 76.3266ZM211.367 82.1609L210.768 82.4656L210.77 82.4697L211.367 82.1609ZM213.249 92.1984V92.8706H213.921V92.1984H213.249ZM186.964 92.1984V91.5263H186.193L186.298 92.2892L186.964 92.1984ZM188.72 97.2799L188.142 97.6234L188.148 97.6327L188.154 97.6418L188.72 97.2799ZM192.547 100.919L192.21 101.5L192.222 101.507L192.547 100.919ZM203.651 100.793L204.013 101.36L204.024 101.352L203.651 100.793ZM207.164 96.9662V96.2941H206.763L206.573 96.6466L207.164 96.9662ZM212.308 96.9662L212.935 97.2094L213.29 96.2941H212.308V96.9662ZM207.101 103.867L207.505 104.405L207.506 104.404L207.101 103.867ZM187.026 87.807L186.364 87.6932L186.229 88.4792H187.026V87.807ZM208.356 87.807V88.4792H209.141L209.02 87.7033L208.356 87.807ZM204.968 81.0944L205.438 80.6137L204.968 81.0944ZM190.414 81.0944L189.944 80.6137L189.939 80.6192L190.414 81.0944ZM198.005 105.83C194.93 105.83 192.271 105.143 190.005 103.792L189.317 104.946C191.819 106.439 194.723 107.174 198.005 107.174V105.83ZM190.013 103.796C187.73 102.394 185.951 100.516 184.669 98.1514L183.487 98.7923C184.881 101.363 186.825 103.416 189.309 104.942L190.013 103.796ZM184.673 98.1592C183.43 95.7944 182.805 93.1842 182.805 90.3164H181.461C181.461 93.3874 182.132 96.2143 183.483 98.7845L184.673 98.1592ZM182.805 90.3164C182.805 87.4014 183.412 84.7905 184.612 82.4697L183.418 81.8521C182.109 84.3828 181.461 87.2089 181.461 90.3164H182.805ZM184.614 82.4656C185.813 80.1083 187.525 78.2575 189.759 76.9012L189.061 75.7521C186.611 77.2397 184.727 79.2784 183.416 81.8563L184.614 82.4656ZM189.766 76.8966C191.986 75.5092 194.619 74.8031 197.691 74.8031V73.4588C194.406 73.4588 191.518 74.2165 189.054 75.7566L189.766 76.8966ZM197.691 74.8031C200.807 74.8031 203.437 75.5101 205.611 76.8937L206.333 75.7596C203.907 74.2155 201.016 73.4588 197.691 73.4588V74.8031ZM205.623 76.9012C207.857 78.2575 209.569 80.1083 210.768 82.4656L211.966 81.8563C210.656 79.2784 208.771 77.2397 206.321 75.7521L205.623 76.9012ZM210.77 82.4697C211.971 84.7905 212.577 87.4014 212.577 90.3164H213.921C213.921 87.2089 213.273 84.3828 211.964 81.8521L210.77 82.4697ZM212.577 90.3164V92.1984H213.921V90.3164H212.577ZM213.249 91.5263H186.964V92.8706H213.249V91.5263ZM186.298 92.2892C186.56 94.2159 187.175 95.9961 188.142 97.6234L189.298 96.9364C188.425 95.4689 187.869 93.8614 187.63 92.1076L186.298 92.2892ZM188.154 97.6418C189.175 99.2406 190.53 100.528 192.21 101.5L192.884 100.337C191.385 99.469 190.189 98.3305 189.287 96.918L188.154 97.6418ZM192.222 101.507C193.925 102.448 195.88 102.908 198.068 102.908V101.564C196.073 101.564 194.348 101.146 192.872 100.33L192.222 101.507ZM198.068 102.908C200.382 102.908 202.376 102.405 204.013 101.359L203.289 100.227C201.915 101.105 200.187 101.564 198.068 101.564V102.908ZM204.024 101.352C205.618 100.29 206.865 98.9327 207.755 97.2859L206.573 96.6466C205.79 98.0947 204.695 99.2891 203.278 100.234L204.024 101.352ZM207.164 97.6384H212.308V96.2941H207.164V97.6384ZM211.682 96.7231C210.639 99.4095 208.98 101.608 206.696 103.33L207.506 104.404C209.99 102.529 211.803 100.127 212.935 97.2094L211.682 96.7231ZM206.698 103.329C204.501 104.977 201.621 105.83 198.005 105.83V107.174C201.833 107.174 205.018 106.27 207.505 104.405L206.698 103.329ZM187.026 88.4792H208.356V87.1349H187.026V88.4792ZM209.02 87.7033C208.581 84.8914 207.388 82.5191 205.438 80.6137L204.499 81.5752C206.229 83.2666 207.295 85.3693 207.692 87.9108L209.02 87.7033ZM205.438 80.6137C203.451 78.6718 200.846 77.7247 197.691 77.7247V79.069C200.559 79.069 202.805 79.9203 204.499 81.5752L205.438 80.6137ZM197.691 77.7247C194.536 77.7247 191.931 78.6718 189.944 80.6137L190.884 81.5752C192.577 79.9203 194.823 79.069 197.691 79.069V77.7247ZM189.939 80.6192C188.035 82.5226 186.846 84.8894 186.364 87.6932L187.689 87.9209C188.127 85.3713 189.196 83.2631 190.889 81.5697L189.939 80.6192Z" fill="white"/>
<path d="M157.129 107.045V85.7598C157.129 81.4289 153.618 77.918 149.287 77.918V77.918C144.956 77.918 141.445 81.4289 141.445 85.7598V107.045" stroke="white" stroke-width="6.72154"/>
<path d="M172.809 107.045V85.7598C172.809 81.4289 169.298 77.918 164.967 77.918V77.918C160.636 77.918 157.125 81.4289 157.125 85.7598V107.045" stroke="white" stroke-width="6.72154"/>
<path d="M250.552 93.3809V85.7631V66.7188H244.758V100.046L250.552 93.3809Z" fill="white"/>
<circle cx="234.5" cy="92.5" r="12.5" stroke="white" stroke-width="6.72154"/>
<path d="M77.7876 96.0102C78.3313 96.0102 78.7495 96.2612 79.0423 96.763C79.3769 97.2649 79.5442 97.955 79.5442 98.8333C79.5442 100.506 79.1468 101.803 78.3522 102.723C76.5538 104.939 74.5881 106.759 72.4552 108.181C70.364 109.603 67.9801 110.314 65.3034 110.314C61.623 110.314 58.8836 108.641 57.0852 105.295C55.3287 101.949 54.4504 97.6204 54.4504 92.3089C54.4504 87.2065 55.0986 81.3931 56.3952 74.8687C57.7335 68.3443 59.6783 62.7401 62.2295 58.0559C64.8225 53.3717 67.8965 51.0296 71.4514 51.0296C73.4589 51.0296 75.0273 51.9707 76.1565 53.8527C77.3275 55.6929 77.9131 58.3487 77.9131 61.82C77.9131 66.7969 76.5329 72.5685 73.7726 79.1347C71.0123 85.7009 67.2691 92.2043 62.5431 98.6451C62.8359 100.36 63.3169 101.594 63.986 102.346C64.6552 103.057 65.5335 103.413 66.6209 103.413C68.3356 103.413 69.8412 102.932 71.1377 101.97C72.4343 100.966 74.0863 99.2724 76.0938 96.8885C76.5956 96.303 77.1603 96.0102 77.7876 96.0102ZM70.0713 57.2404C69.1093 57.2404 68.0219 58.976 66.8091 62.4473C65.5962 65.9186 64.5297 70.2264 63.6096 75.3706C62.6895 80.5148 62.1876 85.4499 62.104 90.1759C65.0734 85.2826 67.4364 80.3894 69.193 75.4961C70.9495 70.561 71.8278 66.065 71.8278 62.0082C71.8278 58.8296 71.2423 57.2404 70.0713 57.2404ZM105.59 96.0102C106.133 96.0102 106.552 96.2612 106.844 96.763C107.179 97.2649 107.346 97.955 107.346 98.8333C107.346 100.506 106.949 101.803 106.154 102.723C104.607 104.605 102.411 106.34 99.5672 107.93C96.7651 109.519 93.7538 110.314 90.5335 110.314C86.1421 110.314 82.7335 109.122 80.3078 106.738C77.882 104.354 76.6692 101.092 76.6692 96.9512C76.6692 94.0655 77.2756 91.3888 78.4885 88.9212C79.7013 86.4119 81.3742 84.4253 83.5072 82.9615C85.682 81.4977 88.1286 80.7658 90.8471 80.7658C93.2729 80.7658 95.2176 81.4977 96.6814 82.9615C98.1452 84.3834 98.8771 86.3282 98.8771 88.7958C98.8771 91.6815 97.8316 94.17 95.7404 96.2612C93.6911 98.3105 90.1989 99.9416 85.2638 101.154C86.3093 103.078 88.2959 104.04 91.2235 104.04C93.1056 104.04 95.2385 103.392 97.6225 102.095C100.048 100.757 102.139 99.0215 103.896 96.8885C104.398 96.303 104.962 96.0102 105.59 96.0102ZM89.7807 86.9137C88.2332 86.9137 86.9158 87.8129 85.8284 89.6113C84.7828 91.4097 84.26 93.5845 84.26 96.1357V96.2612C86.7276 95.6756 88.6723 94.7974 90.0943 93.6263C91.5163 92.4553 92.2273 91.096 92.2273 89.5486C92.2273 88.7539 91.9973 88.1266 91.5372 87.6665C91.119 87.1647 90.5335 86.9137 89.7807 86.9137ZM115.726 86.7255C115.643 88.8167 115.601 90.4478 115.601 91.6188C115.601 94.6301 115.747 96.9931 116.04 98.7078C116.374 100.381 116.897 101.594 117.608 102.346C118.361 103.057 119.386 103.413 120.682 103.413C121.351 103.413 122.146 103.204 123.066 102.786C123.986 102.367 124.823 101.824 125.576 101.154C126.036 100.736 126.496 100.527 126.956 100.527C127.458 100.527 127.855 100.82 128.148 101.405C128.482 101.949 128.65 102.618 128.65 103.413C128.65 104.208 128.482 104.981 128.148 105.734C127.855 106.487 127.395 107.114 126.767 107.616C124.593 109.414 122.125 110.314 119.365 110.314C115.392 110.314 112.485 108.662 110.645 105.358C108.805 102.012 107.884 97.6622 107.884 92.3089C107.884 90.4687 107.947 88.6076 108.073 86.7255H105.626C104.371 86.7255 103.514 86.4955 103.054 86.0355C102.636 85.5754 102.427 84.8435 102.427 83.8397C102.427 81.4977 103.368 80.3266 105.25 80.3266H108.825C109.536 75.7261 110.624 71.5229 112.088 67.717C113.551 63.9111 115.308 60.879 117.357 58.6205C119.448 56.3621 121.686 55.2329 124.07 55.2329C125.826 55.2329 127.207 56.0066 128.21 57.554C129.214 59.1015 129.716 61.0462 129.716 63.3883C129.716 69.8709 126.998 75.517 121.561 80.3266H128.587C129.256 80.3266 129.737 80.473 130.03 80.7658C130.322 81.0585 130.469 81.6022 130.469 82.3969C130.469 85.2826 128.106 86.7255 123.38 86.7255H115.726ZM122.376 61.2554C121.749 61.2554 121.038 62.05 120.243 63.6393C119.49 65.1867 118.758 67.3615 118.047 70.1636C117.378 72.924 116.814 75.9979 116.354 79.3856C118.821 77.2526 120.661 74.8687 121.874 72.2339C123.129 69.5572 123.756 67.1315 123.756 64.9567C123.756 62.4891 123.296 61.2554 122.376 61.2554Z" fill="#156ED1"/>
<path d="M79.0423 96.763L78.4617 97.1017L78.4718 97.1191L78.483 97.1359L79.0423 96.763ZM78.3522 102.723L77.8435 102.283L77.8367 102.291L77.8302 102.299L78.3522 102.723ZM72.4552 108.181L72.0823 107.621L72.0772 107.625L72.4552 108.181ZM57.0852 105.295L56.4901 105.607L56.4932 105.613L57.0852 105.295ZM56.3952 74.8687L55.7367 74.7337L55.7359 74.7377L56.3952 74.8687ZM62.2295 58.0559L61.6414 57.7304L61.6392 57.7344L62.2295 58.0559ZM76.1565 53.8527L75.5801 54.1985L75.5847 54.2061L75.5894 54.2136L76.1565 53.8527ZM73.7726 79.1347L73.153 78.8742L73.7726 79.1347ZM62.5431 98.6451L62.0012 98.2474L61.8326 98.4772L61.8806 98.7582L62.5431 98.6451ZM63.986 102.346L63.4837 102.793L63.49 102.8L63.4966 102.807L63.986 102.346ZM71.1377 101.97L71.5383 102.51L71.5492 102.501L71.1377 101.97ZM76.0938 96.8885L75.5834 96.4511L75.5796 96.4555L76.0938 96.8885ZM66.8091 62.4473L66.1745 62.2256L66.8091 62.4473ZM63.6096 75.3706L62.948 75.2523L63.6096 75.3706ZM62.104 90.1759L61.4319 90.164L61.3879 92.6516L62.6786 90.5246L62.104 90.1759ZM69.193 75.4961L69.8256 75.7232L69.8262 75.7215L69.193 75.4961ZM77.7876 96.6824C78.0729 96.6824 78.2793 96.789 78.4617 97.1017L79.6229 96.4244C79.2197 95.7333 78.5897 95.3381 77.7876 95.3381V96.6824ZM78.483 97.1359C78.7175 97.4877 78.872 98.0303 78.872 98.8333H80.2163C80.2163 97.8797 80.0362 97.0422 79.6016 96.3902L78.483 97.1359ZM78.872 98.8333C78.872 100.406 78.4989 101.525 77.8435 102.283L78.8609 103.162C79.7948 102.081 80.2163 100.607 80.2163 98.8333H78.872ZM77.8302 102.299C76.0697 104.469 74.1531 106.241 72.0823 107.621L72.828 108.74C75.0232 107.277 77.038 105.41 78.8742 103.146L77.8302 102.299ZM72.0772 107.625C70.1042 108.967 67.8536 109.642 65.3034 109.642V110.986C68.1066 110.986 70.6238 110.239 72.8331 108.737L72.0772 107.625ZM65.3034 109.642C63.5684 109.642 62.0884 109.248 60.8389 108.485C59.5883 107.722 58.5304 106.564 57.6773 104.977L56.4932 105.613C57.4384 107.372 58.6495 108.723 60.1383 109.633C61.6282 110.543 63.3581 110.986 65.3034 110.986V109.642ZM57.6804 104.982C55.9907 101.764 55.1225 97.5531 55.1225 92.3089H53.7782C53.7782 97.6877 54.6666 102.134 56.4901 105.607L57.6804 104.982ZM55.1225 92.3089C55.1225 87.2614 55.7641 81.4932 57.0544 74.9997L55.7359 74.7377C54.4332 81.293 53.7782 87.1516 53.7782 92.3089H55.1225ZM57.0536 75.0038C58.3817 68.5291 60.3071 62.9907 62.8197 58.3774L61.6392 57.7344C59.0494 62.4894 57.0852 68.1596 55.7367 74.7337L57.0536 75.0038ZM62.8175 58.3814C65.3577 53.7928 68.2515 51.7018 71.4514 51.7018V50.3575C67.5414 50.3575 64.2873 52.9507 61.6414 57.7304L62.8175 58.3814ZM71.4514 51.7018C73.1974 51.7018 74.5587 52.4962 75.5801 54.1985L76.7329 53.5069C75.4958 51.4452 73.7204 50.3575 71.4514 50.3575V51.7018ZM75.5894 54.2136C76.6624 55.8997 77.2409 58.4075 77.2409 61.82H78.5852C78.5852 58.2898 77.9927 55.4862 76.7236 53.4918L75.5894 54.2136ZM77.2409 61.82C77.2409 66.6777 75.8924 72.3577 73.153 78.8742L74.3922 79.3951C77.1734 72.7793 78.5852 66.9161 78.5852 61.82H77.2409ZM73.153 78.8742C70.4154 85.3863 66.6997 91.8441 62.0012 98.2474L63.085 99.0427C67.8385 92.5645 71.6092 86.0154 74.3922 79.3951L73.153 78.8742ZM61.8806 98.7582C62.181 100.518 62.6901 101.9 63.4837 102.793L64.4884 101.9C63.9436 101.287 63.4908 100.202 63.2057 98.5319L61.8806 98.7582ZM63.4966 102.807C64.3079 103.669 65.3714 104.085 66.6209 104.085V102.741C65.6955 102.741 65.0025 102.446 64.4755 101.886L63.4966 102.807ZM66.6209 104.085C68.4703 104.085 70.1185 103.563 71.5382 102.51L70.7372 101.43C69.564 102.301 68.2009 102.741 66.6209 102.741V104.085ZM71.5492 102.501C72.9032 101.453 74.5919 99.7154 76.6079 97.3215L75.5796 96.4555C73.5806 98.8294 71.9653 100.479 70.7263 101.439L71.5492 102.501ZM76.6041 97.3259C77.0102 96.8522 77.4007 96.6824 77.7876 96.6824V95.3381C76.9198 95.3381 76.1811 95.7538 75.5834 96.4511L76.6041 97.3259ZM70.0713 56.5682C69.6187 56.5682 69.2218 56.7735 68.8919 57.0529C68.5628 57.3316 68.2561 57.7201 67.9647 58.1852C67.3812 59.1165 66.7867 60.4737 66.1745 62.2256L67.4436 62.669C68.0443 60.9497 68.5999 59.7034 69.1039 58.899C69.3561 58.4963 69.5774 58.2339 69.7607 58.0787C69.9431 57.9242 70.0428 57.9125 70.0713 57.9125V56.5682ZM66.1745 62.2256C64.9461 65.7413 63.872 70.0863 62.948 75.2523L64.2713 75.4889C65.1875 70.3665 66.2463 66.0959 67.4436 62.669L66.1745 62.2256ZM62.948 75.2523C62.0222 80.428 61.5163 85.3988 61.4319 90.164L62.776 90.1878C62.859 85.501 63.3568 80.6016 64.2713 75.4889L62.948 75.2523ZM62.6786 90.5246C65.6691 85.5967 68.0524 80.6628 69.8256 75.7232L68.5604 75.269C66.8204 80.1159 64.4778 84.9686 61.5294 89.8272L62.6786 90.5246ZM69.8262 75.7215C71.6014 70.734 72.5 66.1605 72.5 62.0082H71.1557C71.1557 65.9695 70.2977 70.3879 68.5597 75.2707L69.8262 75.7215ZM72.5 62.0082C72.5 60.3965 72.354 59.1083 72.0194 58.1999C71.8506 57.7417 71.6179 57.336 71.2907 57.0399C70.9491 56.7309 70.5328 56.5682 70.0713 56.5682V57.9125C70.1953 57.9125 70.2913 57.9485 70.3888 58.0368C70.5007 58.138 70.634 58.3283 70.758 58.6647C71.0088 59.3456 71.1557 60.4413 71.1557 62.0082H72.5ZM106.844 96.763L106.264 97.1017L106.274 97.1191L106.285 97.1359L106.844 96.763ZM106.154 102.723L105.646 102.283L105.64 102.29L105.635 102.296L106.154 102.723ZM99.5672 107.93L99.2393 107.343L99.2356 107.345L99.5672 107.93ZM80.3078 106.738L80.7789 106.258L80.3078 106.738ZM78.4885 88.9212L79.0917 89.2177L79.0936 89.2137L78.4885 88.9212ZM83.5072 82.9615L83.1319 82.4038L83.1269 82.4073L83.5072 82.9615ZM96.6814 82.9615L96.2061 83.4368L96.2131 83.4436L96.6814 82.9615ZM95.7404 96.2612L95.2651 95.7859L95.7404 96.2612ZM85.2638 101.154L85.1034 100.502L84.2571 100.71L84.6732 101.475L85.2638 101.154ZM97.6225 102.095L97.9436 102.686L97.9472 102.684L97.6225 102.095ZM103.896 96.8885L103.385 96.451L103.377 96.4612L103.896 96.8885ZM85.8284 89.6113L85.2531 89.2635L85.2473 89.2735L85.8284 89.6113ZM84.26 96.2612H83.5879V97.1115L84.4152 96.9152L84.26 96.2612ZM90.0943 93.6263L89.667 93.1075L90.0943 93.6263ZM91.5372 87.6665L91.0209 88.0969L91.0404 88.1203L91.0619 88.1418L91.5372 87.6665ZM105.59 96.6824C105.875 96.6824 106.081 96.789 106.264 97.1017L107.425 96.4244C107.022 95.7333 106.392 95.3381 105.59 95.3381V96.6824ZM106.285 97.1359C106.52 97.4877 106.674 98.0303 106.674 98.8333H108.018C108.018 97.8797 107.838 97.0422 107.404 96.3902L106.285 97.1359ZM106.674 98.8333C106.674 100.406 106.301 101.525 105.646 102.283L106.663 103.162C107.597 102.081 108.018 100.607 108.018 98.8333H106.674ZM105.635 102.296C104.156 104.095 102.033 105.782 99.2393 107.343L99.8951 108.517C102.789 106.899 105.058 105.114 106.674 103.15L105.635 102.296ZM99.2356 107.345C96.5346 108.877 93.6376 109.642 90.5335 109.642V110.986C93.8701 110.986 96.9956 110.161 99.8988 108.514L99.2356 107.345ZM90.5335 109.642C86.2648 109.642 83.0453 108.486 80.7789 106.258L79.8366 107.217C82.4216 109.758 86.0193 110.986 90.5335 110.986V109.642ZM80.7789 106.258C78.5088 104.027 77.3413 100.953 77.3413 96.9512H75.997C75.997 101.23 77.2552 104.68 79.8366 107.217L80.7789 106.258ZM77.3413 96.9512C77.3413 94.163 77.9264 91.5884 79.0917 89.2177L77.8852 88.6247C76.6248 91.1891 75.997 93.9679 75.997 96.9512H77.3413ZM79.0936 89.2137C80.2597 86.8013 81.8584 84.9082 83.8875 83.5157L83.1269 82.4073C80.89 83.9423 79.143 86.0225 77.8833 88.6287L79.0936 89.2137ZM83.8825 83.5191C85.9421 82.1328 88.2571 81.4379 90.8471 81.4379V80.0936C88.0002 80.0936 85.4219 80.8625 83.1319 82.4039L83.8825 83.5191ZM90.8471 81.4379C93.1276 81.4379 94.89 82.1206 96.2062 83.4368L97.1567 82.4862C95.5453 80.8748 93.4181 80.0936 90.8471 80.0936V81.4379ZM96.2131 83.4436C97.52 84.7132 98.205 86.4691 98.205 88.7958H99.5493C99.5493 86.1873 98.7705 84.0537 97.1498 82.4793L96.2131 83.4436ZM98.205 88.7958C98.205 91.4984 97.2337 93.8173 95.2651 95.7859L96.2157 96.7364C98.4294 94.5227 99.5493 91.8647 99.5493 88.7958H98.205ZM95.2651 95.7859C93.3459 97.7052 89.9975 99.2989 85.1034 100.502L85.4242 101.807C90.4003 100.584 94.0363 98.9158 96.2157 96.7364L95.2651 95.7859ZM84.6732 101.475C85.8759 103.688 88.1451 104.712 91.2235 104.712V103.368C88.4468 103.368 86.7428 102.468 85.8543 100.833L84.6732 101.475ZM91.2235 104.712C93.2564 104.712 95.5019 104.014 97.9436 102.686L97.3013 101.505C94.9752 102.77 92.9547 103.368 91.2235 103.368V104.712ZM97.9472 102.684C100.447 101.305 102.604 99.5145 104.415 97.3158L103.377 96.4612C101.675 98.5285 99.6494 100.209 97.2978 101.507L97.9472 102.684ZM104.406 97.3259C104.812 96.8522 105.203 96.6824 105.59 96.6824V95.3381C104.722 95.3381 103.983 95.7538 103.386 96.4511L104.406 97.3259ZM89.7807 86.2416C87.9168 86.2416 86.4135 87.3446 85.2532 89.2635L86.4036 89.9591C87.4181 88.2812 88.5496 87.5859 89.7807 87.5859V86.2416ZM85.2473 89.2735C84.1299 91.1953 83.5879 93.4925 83.5879 96.1357H84.9322C84.9322 93.6764 85.4357 91.6241 86.4095 89.9492L85.2473 89.2735ZM83.5879 96.1357V96.2612H84.9322V96.1357H83.5879ZM84.4152 96.9152C86.9471 96.3144 88.9964 95.4012 90.5216 94.1452L89.667 93.1075C88.3483 94.1935 86.5081 95.0369 84.1048 95.6072L84.4152 96.9152ZM90.5216 94.1452C92.0659 92.8734 92.8994 91.3357 92.8994 89.5486H91.5551C91.5551 90.8563 90.9667 92.0372 89.667 93.1075L90.5216 94.1452ZM92.8994 89.5486C92.8994 88.6177 92.6255 87.8042 92.0125 87.1913L91.0619 88.1418C91.369 88.449 91.5551 88.8902 91.5551 89.5486H92.8994ZM92.0536 87.2362C91.4874 86.5568 90.699 86.2416 89.7807 86.2416V87.5859C90.3679 87.5859 90.7506 87.7725 91.0209 88.0969L92.0536 87.2362ZM115.726 86.7255V86.0534H115.08L115.055 86.6987L115.726 86.7255ZM116.04 98.7078L115.377 98.8209L115.379 98.8303L115.381 98.8396L116.04 98.7078ZM117.608 102.346L117.12 102.808L117.133 102.822L117.147 102.835L117.608 102.346ZM123.066 102.786L122.788 102.174V102.174L123.066 102.786ZM125.576 101.154L126.022 101.657L126.028 101.652L125.576 101.154ZM128.148 101.405L127.546 101.706L127.56 101.732L127.575 101.758L128.148 101.405ZM128.148 105.734L127.533 105.461L127.527 105.476L127.521 105.49L128.148 105.734ZM126.767 107.616L126.348 107.091L126.339 107.098L126.767 107.616ZM110.645 105.358L110.056 105.682L110.058 105.685L110.645 105.358ZM108.073 86.7255L108.743 86.7702L108.791 86.0534H108.073V86.7255ZM103.054 86.0355L102.557 86.4876L102.567 86.4994L102.579 86.5107L103.054 86.0355ZM108.825 80.3266V80.9988H109.402L109.49 80.4293L108.825 80.3266ZM112.088 67.717L111.46 67.4757L112.088 67.717ZM117.357 58.6205L116.864 58.1638L116.86 58.1688L117.357 58.6205ZM128.21 57.554L128.774 57.1882V57.1882L128.21 57.554ZM121.561 80.3266L121.115 79.8232L119.786 80.9988H121.561V80.3266ZM120.243 63.6393L119.642 63.3387L119.639 63.3452L120.243 63.6393ZM118.047 70.1636L117.396 69.9983L117.394 70.0053L118.047 70.1636ZM116.354 79.3856L115.688 79.2952L115.448 81.0566L116.793 79.8941L116.354 79.3856ZM121.874 72.2339L121.266 71.9486L121.264 71.9528L121.874 72.2339ZM115.055 86.6987C114.971 88.793 114.929 90.4345 114.929 91.6188H116.273C116.273 90.4611 116.314 88.8404 116.398 86.7524L115.055 86.6987ZM114.929 91.6188C114.929 94.6448 115.075 97.0514 115.377 98.8209L116.702 98.5947C116.419 96.9347 116.273 94.6153 116.273 91.6188H114.929ZM115.381 98.8396C115.726 100.564 116.283 101.922 117.12 102.808L118.097 101.885C117.512 101.266 117.023 100.197 116.699 98.576L115.381 98.8396ZM117.147 102.835C118.054 103.692 119.259 104.085 120.682 104.085V102.741C119.512 102.741 118.668 102.423 118.07 101.858L117.147 102.835ZM120.682 104.085C121.484 104.085 122.377 103.837 123.344 103.397L122.788 102.174C121.915 102.571 121.219 102.741 120.682 102.741V104.085ZM123.344 103.397C124.325 102.951 125.219 102.371 126.022 101.657L125.129 100.652C124.427 101.276 123.647 101.783 122.788 102.174L123.344 103.397ZM126.028 101.652C126.408 101.306 126.714 101.199 126.956 101.199V99.8549C126.277 99.8549 125.663 100.166 125.123 100.657L126.028 101.652ZM126.956 101.199C127.123 101.199 127.327 101.266 127.546 101.706L128.749 101.105C128.383 100.373 127.792 99.8549 126.956 99.8549V101.199ZM127.575 101.758C127.83 102.172 127.977 102.712 127.977 103.413H129.322C129.322 102.524 129.134 101.726 128.72 101.053L127.575 101.758ZM127.977 103.413C127.977 104.11 127.831 104.791 127.533 105.461L128.762 106.007C129.133 105.172 129.322 104.305 129.322 103.413H127.977ZM127.521 105.49C127.271 106.134 126.882 106.664 126.348 107.091L127.187 108.141C127.908 107.565 128.439 106.84 128.774 105.978L127.521 105.49ZM126.339 107.098C124.282 108.799 121.965 109.642 119.365 109.642V110.986C122.285 110.986 124.903 110.03 127.196 108.134L126.339 107.098ZM119.365 109.642C117.473 109.642 115.872 109.249 114.537 108.49C113.204 107.733 112.1 106.59 111.232 105.031L110.058 105.685C111.029 107.43 112.299 108.765 113.873 109.659C115.445 110.553 117.284 110.986 119.365 110.986V109.642ZM111.234 105.034C109.466 101.819 108.557 97.592 108.557 92.3089H107.212C107.212 97.7324 108.143 102.205 110.056 105.682L111.234 105.034ZM108.557 92.3089C108.557 90.484 108.619 88.6378 108.743 86.7702L107.402 86.6808C107.276 88.5774 107.212 90.4534 107.212 92.3089H108.557ZM108.073 86.0534H105.626V87.3977H108.073V86.0534ZM105.626 86.0534C104.403 86.0534 103.788 85.819 103.529 85.5602L102.579 86.5107C103.24 87.1721 104.339 87.3977 105.626 87.3977V86.0534ZM103.551 85.5833C103.297 85.3038 103.099 84.7734 103.099 83.8397H101.754C101.754 84.9136 101.974 85.847 102.557 86.4876L103.551 85.5833ZM103.099 83.8397C103.099 82.741 103.322 82.0415 103.656 81.6259C103.968 81.2385 104.456 80.9988 105.25 80.9988V79.6545C104.161 79.6545 103.238 80.0003 102.608 80.7839C102.001 81.5393 101.754 82.5964 101.754 83.8397H103.099ZM105.25 80.9988H108.825V79.6545H105.25V80.9988ZM109.49 80.4293C110.194 75.8696 111.271 71.7136 112.715 67.9583L111.46 67.4757C109.977 71.3321 108.878 75.5826 108.161 80.224L109.49 80.4293ZM112.715 67.9583C114.158 64.2053 115.877 61.2522 117.855 59.0722L116.86 58.1688C114.739 60.5057 112.944 63.6169 111.46 67.4757L112.715 67.9583ZM117.851 59.0772C119.854 56.9138 121.924 55.905 124.07 55.905V54.5607C121.448 54.5607 119.043 55.8103 116.864 58.1638L117.851 59.0772ZM124.07 55.905C125.585 55.905 126.759 56.5519 127.646 57.9198L128.774 57.1882C127.654 55.4612 126.068 54.5607 124.07 54.5607V55.905ZM127.646 57.9198C128.563 59.3324 129.044 61.1413 129.044 63.3883H130.388C130.388 60.9512 129.866 58.8705 128.774 57.1882L127.646 57.9198ZM129.044 63.3883C129.044 69.654 126.427 75.1241 121.115 79.8232L122.006 80.8301C127.568 75.9099 130.388 70.0877 130.388 63.3883H129.044ZM121.561 80.9988H128.587V79.6545H121.561V80.9988ZM128.587 80.9988C129.183 80.9988 129.446 81.1331 129.554 81.241L130.505 80.2905C130.027 79.8129 129.329 79.6545 128.587 79.6545V80.9988ZM129.554 81.241C129.646 81.3329 129.797 81.6353 129.797 82.3969H131.141C131.141 81.5691 130.999 80.7841 130.505 80.2905L129.554 81.241ZM129.797 82.3969C129.797 83.6176 129.318 84.4765 128.346 85.0697C127.321 85.6958 125.696 86.0534 123.38 86.0534V87.3977C125.789 87.3977 127.709 87.0338 129.047 86.217C130.438 85.3673 131.141 84.0619 131.141 82.3969H129.797ZM123.38 86.0534H115.726V87.3977H123.38V86.0534ZM122.376 60.5832C121.773 60.5832 121.269 60.9584 120.871 61.4031C120.458 61.8647 120.051 62.521 119.642 63.3387L120.844 63.9399C121.23 63.1682 121.575 62.6326 121.873 62.2995C122.186 61.9496 122.352 61.9275 122.376 61.9275V60.5832ZM119.639 63.3452C118.857 64.9523 118.112 67.1774 117.396 69.9983L118.699 70.329C119.405 67.5456 120.124 65.4212 120.848 63.9333L119.639 63.3452ZM117.394 70.0053C116.719 72.792 116.15 75.8891 115.688 79.2952L117.02 79.4761C117.477 76.1068 118.038 73.056 118.701 70.322L117.394 70.0053ZM116.793 79.8941C119.324 77.7062 121.227 75.2472 122.485 72.5149L121.264 71.9528C120.096 74.4903 118.318 76.799 115.914 78.8771L116.793 79.8941ZM122.483 72.5192C123.765 69.7835 124.428 67.2588 124.428 64.9567H123.084C123.084 67.0041 122.493 69.3309 121.266 71.9486L122.483 72.5192ZM124.428 64.9567C124.428 63.7002 124.314 62.6775 124.041 61.9459C123.903 61.5757 123.709 61.2367 123.428 60.9856C123.133 60.7219 122.772 60.5832 122.376 60.5832V61.9275C122.44 61.9275 122.482 61.943 122.532 61.9878C122.596 62.0452 122.689 62.1688 122.781 62.4155C122.969 62.9177 123.084 63.7456 123.084 64.9567H124.428Z" fill="#1671D6"/>
</svg>
