<svg width="26" height="31" viewBox="0 0 26 31" fill="none" xmlns="http://www.w3.org/2000/svg">
<path d="M6.16086 12.7213V25.527C6.16086 28.1659 8.30764 30.3127 10.9466 30.3127C13.5855 30.3127 15.7323 28.1659 15.7323 25.527V15.2784C15.7323 13.7728 16.9709 12.5482 18.4934 12.5482C20.016 12.5482 21.2546 13.7731 21.2546 15.2784V19.4671C19.9526 19.7977 18.9867 20.9793 18.9867 22.3825C18.9867 24.041 20.3361 25.3903 21.9945 25.3903C23.6529 25.3903 25.0023 24.0409 25.0023 22.3825C25.0023 21.0091 24.0768 19.8487 22.817 19.4899V15.2781C22.817 12.9109 20.8773 10.9854 18.4934 10.9854C16.1091 10.9854 14.1697 12.9112 14.1697 15.2781V25.5267C14.1697 27.3041 12.7239 28.7499 10.9465 28.7499C9.16914 28.7499 7.72329 27.3041 7.72329 25.5267V12.721C11.1845 12.3315 13.884 9.38699 13.884 5.82343V0.781286C13.884 0.349921 13.5341 0 13.1027 0C12.6713 0 12.3214 0.349886 12.3214 0.781286V5.82314C12.3214 8.78935 9.90821 11.2026 6.942 11.2026C3.97579 11.2026 1.56257 8.78935 1.56257 5.82314V0.781286C1.56257 0.349921 1.21269 0 0.781286 0C0.349886 0 0 0.349886 0 0.781286V5.82314C0 9.38707 2.69921 12.3315 6.16071 12.721L6.16086 12.7213ZM23.4401 22.3834C23.4401 23.1803 22.7917 23.8287 21.9949 23.8287C21.198 23.8287 20.5496 23.1803 20.5496 22.3834C20.5496 21.5866 21.198 20.9381 21.9949 20.9381C22.7917 20.9381 23.4401 21.5866 23.4401 22.3834Z" fill="white"/>
</svg>
