<svg width="28" height="29" viewBox="0 0 28 29" fill="none" xmlns="http://www.w3.org/2000/svg">
<path d="M14 0.62793C6.27786 0.62793 0 6.90557 0 14.6279C0 22.3503 6.27764 28.6279 14 28.6279C21.7224 28.6279 28 22.3503 28 14.6279C28 6.90557 21.7224 0.62793 14 0.62793ZM14 2.22779C20.8577 2.22779 26.4 7.76993 26.4 14.6278C26.4 21.4855 20.8579 27.0278 14 27.0278C7.14228 27.0278 1.6 21.4856 1.6 14.6278C1.6 7.77007 7.14214 2.22779 14 2.22779ZM14 5.42786C13.558 5.42786 13.2001 5.78611 13.2001 6.22779V14.6278C13.2001 14.9235 13.3613 15.1769 13.6002 15.3153C15.7877 16.5767 17.9939 17.8496 20.1878 19.1152C20.5704 19.3362 21.0545 19.2104 21.2755 18.8278C21.4965 18.4453 21.3706 17.9612 20.9881 17.7402L14.8 14.1654V6.22754C14.8 5.78558 14.4418 5.42762 14.0001 5.42762L14 5.42786Z" fill="white"/>
</svg>
