<svg width="24" height="24" viewBox="0 0 24 24" fill="none" xmlns="http://www.w3.org/2000/svg">
<rect x="0.65" y="0.65" width="22.7" height="22.7" rx="11.35" fill="white"/>
<mask id="path-2-inside-1_157_128" fill="white">
<path d="M11.4492 6.2918C12.8406 4.68657 15.2182 4.56008 16.7596 6.00929C18.3009 7.45849 18.4224 9.9346 17.031 11.5398L12.5508 16.7082C11.1594 18.3134 8.78182 18.4399 7.24045 16.9907C5.69908 15.5415 5.57757 13.0654 6.96905 11.4602L11.4492 6.2918Z"/>
<path d="M8.41926 9.78717L14.0019 15.0349L12.5524 16.7081C11.1605 18.3131 8.78205 18.4398 7.24045 16.9907C5.69908 15.5415 5.57757 13.0654 6.96905 11.4602L8.41926 9.78717Z"/>
</mask>
<path d="M8.41926 9.78717L14.0019 15.0349L12.5524 16.7081C11.1605 18.3131 8.78205 18.4398 7.24045 16.9907C5.69908 15.5415 5.57757 13.0654 6.96905 11.4602L8.41926 9.78717Z" fill="#2B96F7"/>
<path d="M7.68569 16.5172C6.40015 15.3085 6.29562 13.2294 7.4602 11.8859L6.47789 11.0344C4.85952 12.9014 4.99801 15.7745 6.79521 17.4643L7.68569 16.5172ZM7.24045 16.9907L8.13084 16.0435L6.34996 17.9378L7.24045 16.9907ZM12.5508 16.7082L13.5331 17.5597L12.5508 16.7082ZM17.031 11.5398L16.0486 10.6883L17.031 11.5398ZM11.4492 6.2918L10.4669 5.4403L11.4492 6.2918ZM8.41926 9.78717L9.30965 8.83996L8.32348 7.91295L7.43694 8.93567L8.41926 9.78717ZM14.0019 15.0349L14.9844 15.8862L15.8018 14.9427L14.8923 14.0877L14.0019 15.0349ZM12.5524 16.7081L13.5345 17.5598L13.5349 17.5593L12.5524 16.7081ZM16.0486 10.6883L11.5685 15.8567L13.5331 17.5597L18.0133 12.3913L16.0486 10.6883ZM7.95136 12.3117L12.4315 7.14331L10.4669 5.4403L5.98673 10.6087L7.95136 12.3117ZM11.5685 15.8567C10.6573 16.9079 9.13032 16.9832 8.13094 16.0436L6.34996 17.9378C8.43332 19.8966 11.6614 19.719 13.5331 17.5597L11.5685 15.8567ZM15.8691 6.95641C16.8988 7.92455 16.9863 9.60659 16.0486 10.6883L18.0133 12.3913C19.8585 10.2626 19.7031 6.99243 17.65 5.06217L15.8691 6.95641ZM17.65 5.06217C15.5667 3.10339 12.3386 3.28103 10.4669 5.4403L12.4315 7.14331C13.3427 6.0921 14.8697 6.01678 15.8691 6.95641L17.65 5.06217ZM7.52887 10.7344L13.1115 15.9821L14.8923 14.0877L9.30965 8.83996L7.52887 10.7344ZM13.0194 14.1837L11.5698 15.8568L13.5349 17.5593L14.9844 15.8862L13.0194 14.1837ZM7.95136 12.3117L9.40157 10.6387L7.43694 8.93567L5.98673 10.6087L7.95136 12.3117ZM11.5702 15.8564C10.6585 16.9078 9.13039 16.9831 8.13084 16.0435L6.35006 17.9379C8.43372 19.8966 11.6625 19.7185 13.5345 17.5598L11.5702 15.8564Z" fill="#2B96F7" mask="url(#path-2-inside-1_157_128)"/>
<rect x="0.65" y="0.65" width="22.7" height="22.7" rx="11.35" stroke="#2B96F7" stroke-width="1.3"/>
</svg>
