<svg width="34" height="34" viewBox="0 0 34 34" fill="none" xmlns="http://www.w3.org/2000/svg">
<path d="M11.6875 32.0344V24.7031L6.21558 28.7406C7.7562 30.175 9.61558 31.2906 11.6875 32.0344ZM22.3125 32.0344C24.3843 31.2906 26.2437 30.175 27.7843 28.7406L22.3125 24.65V32.0344ZM1.96558 22.3125C2.12495 22.8438 2.33745 23.3219 2.60308 23.8531L4.67495 22.3125H1.96558ZM29.325 22.3125L31.3968 23.8531C31.6093 23.375 31.8218 22.8438 32.0343 22.3125H29.325Z" fill="#2A5F9E"/>
<path d="M12.4845 20.1875H1.38135C1.54072 20.9313 1.75322 21.6219 1.96572 22.3125H4.6751L2.60322 23.8531C3.02822 24.7563 3.50635 25.5531 4.09072 26.35L9.5626 22.3125H11.6876V23.375L5.47197 27.9437L6.21572 28.6875L11.6876 24.7031V32.0344C12.3782 32.3 13.0688 32.4594 13.8126 32.6188V20.1875H12.4845ZM32.6188 20.1875H20.1876V32.6188C20.9313 32.4594 21.622 32.2469 22.3126 32.0344V24.7031L27.7845 28.6875C28.5282 27.9969 29.1657 27.2531 29.8032 26.4563L24.1188 22.3125H27.7313L30.972 24.7031C31.1313 24.4375 31.2907 24.1188 31.397 23.8531L29.3251 22.3125H32.0345C32.247 21.6219 32.4595 20.9313 32.6188 20.1875Z" fill="white"/>
<path d="M4.09058 26.35C4.51558 26.9344 4.94058 27.4656 5.4187 27.9969L11.6875 23.4281V22.3656H9.56245L4.09058 26.35ZM24.1718 22.3125L29.8562 26.4563C30.0687 26.1906 30.2281 25.925 30.4406 25.6594C30.4937 25.6063 30.4937 25.5531 30.5468 25.5531C30.7062 25.2875 30.9187 24.9688 31.0781 24.7031L27.7312 22.3125H24.1718Z" fill="#ED4C5C"/>
<path d="M22.3125 1.96484V9.29609L27.7843 5.25859C26.2437 3.82422 24.3843 2.70859 22.3125 1.96484ZM11.6875 1.96484C9.61558 2.70859 7.7562 3.82422 6.21558 5.25859L11.6875 9.34922V1.96484ZM32.0343 11.6867C31.875 11.1555 31.6625 10.6773 31.3968 10.1461L29.325 11.6867H32.0343ZM4.67495 11.6867L2.60308 10.1461C2.39058 10.6773 2.17808 11.1555 1.96558 11.6867H4.67495Z" fill="#2A5F9E"/>
<path d="M21.5157 13.8121H32.5657C32.4063 13.0684 32.1938 12.3777 31.9813 11.6871H29.272L31.3438 10.1465C30.9188 9.24336 30.4407 8.44648 29.8563 7.64961L24.4376 11.6871H22.3126V10.6246L28.5282 6.05586L27.7845 5.31211L22.3126 9.29648V1.96523C21.622 1.69961 20.9313 1.54023 20.1876 1.38086V13.8121H21.5157ZM1.38135 13.8121H13.8126V1.38086C13.0688 1.54023 12.3782 1.75273 11.6876 1.96523V9.29648L6.21572 5.31211C5.47197 6.00274 4.83447 6.74649 4.19697 7.54336L9.88135 11.6871H6.26885L3.02822 9.29648C2.86885 9.56211 2.70947 9.88086 2.60322 10.1465L4.6751 11.6871H1.96572C1.75322 12.3777 1.54072 13.0684 1.38135 13.8121Z" fill="white"/>
<path d="M29.9095 7.65078C29.4845 7.06641 29.0595 6.53516 28.5813 6.00391L22.3126 10.5727V11.6352H24.4376L29.9095 7.65078ZM9.82822 11.6883L4.19697 7.54453C3.98447 7.81016 3.8251 8.07578 3.6126 8.34141C3.55947 8.39453 3.55947 8.44766 3.50635 8.44766C3.34697 8.71328 3.13447 9.03203 2.9751 9.29766L6.21572 11.6883H9.82822Z" fill="#ED4C5C"/>
<path d="M32.6188 13.8125H20.1875V1.38125C19.1781 1.16875 18.1156 1.0625 17 1.0625C15.8844 1.0625 14.8219 1.16875 13.8125 1.38125V13.8125H1.38125C1.16875 14.8219 1.0625 15.8844 1.0625 17C1.0625 18.1156 1.16875 19.1781 1.38125 20.1875H13.8125V32.6188C14.8219 32.8313 15.8844 32.9375 17 32.9375C18.1156 32.9375 19.1781 32.8313 20.1875 32.6188V20.1875H32.6188C32.8313 19.1781 32.9375 18.1156 32.9375 17C32.9375 15.8844 32.8313 14.8219 32.6188 13.8125Z" fill="#ED4C5C"/>
</svg>
