<svg width="178" height="93" viewBox="0 0 178 93" fill="none" xmlns="http://www.w3.org/2000/svg">
<path fill-rule="evenodd" clip-rule="evenodd" d="M46.5 93C72.1812 93 93 72.1812 93 46.5C93 20.8188 72.1812 0 46.5 0C20.8188 0 0 20.8188 0 46.5C0 72.1812 20.8188 93 46.5 93Z" fill="#156ED1"/>
<path d="M51.215 55.965C51.605 55.965 51.905 56.145 52.115 56.505C52.355 56.865 52.475 57.36 52.475 57.99C52.475 59.19 52.19 60.12 51.62 60.78C50.33 62.37 48.92 63.675 47.39 64.695C45.89 65.715 44.18 66.225 42.26 66.225C39.62 66.225 37.655 65.025 36.365 62.625C35.105 60.225 34.475 57.12 34.475 53.31C34.475 49.65 34.94 45.48 35.87 40.8C36.83 36.12 38.225 32.1 40.055 28.74C41.915 25.38 44.12 23.7 46.67 23.7C48.11 23.7 49.235 24.375 50.045 25.725C50.885 27.045 51.305 28.95 51.305 31.44C51.305 35.01 50.315 39.15 48.335 43.86C46.355 48.57 43.67 53.235 40.28 57.855C40.49 59.085 40.835 59.97 41.315 60.51C41.795 61.02 42.425 61.275 43.205 61.275C44.435 61.275 45.515 60.93 46.445 60.24C47.375 59.52 48.56 58.305 50 56.595C50.36 56.175 50.765 55.965 51.215 55.965ZM45.68 28.155C44.99 28.155 44.21 29.4 43.34 31.89C42.47 34.38 41.705 37.47 41.045 41.16C40.385 44.85 40.025 48.39 39.965 51.78C42.095 48.27 43.79 44.76 45.05 41.25C46.31 37.71 46.94 34.485 46.94 31.575C46.94 29.295 46.52 28.155 45.68 28.155ZM71.1577 55.965C71.5477 55.965 71.8477 56.145 72.0577 56.505C72.2977 56.865 72.4177 57.36 72.4177 57.99C72.4177 59.19 72.1327 60.12 71.5627 60.78C70.4527 62.13 68.8777 63.375 66.8377 64.515C64.8277 65.655 62.6677 66.225 60.3577 66.225C57.2077 66.225 54.7627 65.37 53.0227 63.66C51.2827 61.95 50.4127 59.61 50.4127 56.64C50.4127 54.57 50.8477 52.65 51.7177 50.88C52.5877 49.08 53.7877 47.655 55.3177 46.605C56.8777 45.555 58.6327 45.03 60.5827 45.03C62.3227 45.03 63.7177 45.555 64.7677 46.605C65.8177 47.625 66.3427 49.02 66.3427 50.79C66.3427 52.86 65.5927 54.645 64.0927 56.145C62.6227 57.615 60.1177 58.785 56.5777 59.655C57.3277 61.035 58.7527 61.725 60.8527 61.725C62.2027 61.725 63.7327 61.26 65.4427 60.33C67.1827 59.37 68.6827 58.125 69.9427 56.595C70.3027 56.175 70.7077 55.965 71.1577 55.965ZM59.8177 49.44C58.7077 49.44 57.7627 50.085 56.9827 51.375C56.2327 52.665 55.8577 54.225 55.8577 56.055V56.145C57.6277 55.725 59.0227 55.095 60.0427 54.255C61.0627 53.415 61.5727 52.44 61.5727 51.33C61.5727 50.76 61.4077 50.31 61.0777 49.98C60.7777 49.62 60.3577 49.44 59.8177 49.44ZM78.4288 49.305C78.3688 50.805 78.3388 51.975 78.3388 52.815C78.3388 54.975 78.4438 56.67 78.6538 57.9C78.8938 59.1 79.2688 59.97 79.7788 60.51C80.3188 61.02 81.0538 61.275 81.9838 61.275C82.4638 61.275 83.0338 61.125 83.6938 60.825C84.3538 60.525 84.9538 60.135 85.4938 59.655C85.8238 59.355 86.1538 59.205 86.4838 59.205C86.8438 59.205 87.1288 59.415 87.3388 59.835C87.5788 60.225 87.6988 60.705 87.6988 61.275C87.6988 61.845 87.5788 62.4 87.3388 62.94C87.1288 63.48 86.7988 63.93 86.3488 64.29C84.7888 65.58 83.0188 66.225 81.0388 66.225C78.1888 66.225 76.1038 65.04 74.7837 62.67C73.4638 60.27 72.8038 57.15 72.8038 53.31C72.8038 51.99 72.8488 50.655 72.9388 49.305H71.1838C70.2838 49.305 69.6688 49.14 69.3388 48.81C69.0388 48.48 68.8888 47.955 68.8888 47.235C68.8888 45.555 69.5638 44.715 70.9138 44.715H73.4788C73.9888 41.415 74.7688 38.4 75.8188 35.67C76.8688 32.94 78.1288 30.765 79.5988 29.145C81.0988 27.525 82.7038 26.715 84.4138 26.715C85.6738 26.715 86.6638 27.27 87.3838 28.38C88.1038 29.49 88.4638 30.885 88.4638 32.565C88.4638 37.215 86.5138 41.265 82.6138 44.715H87.6538C88.1338 44.715 88.4788 44.82 88.6888 45.03C88.8988 45.24 89.0038 45.63 89.0038 46.2C89.0038 48.27 87.3088 49.305 83.9188 49.305H78.4288ZM83.1988 31.035C82.7488 31.035 82.2388 31.605 81.6688 32.745C81.1288 33.855 80.6038 35.415 80.0938 37.425C79.6138 39.405 79.2088 41.61 78.8788 44.04C80.6488 42.51 81.9688 40.8 82.8388 38.91C83.7388 36.99 84.1888 35.25 84.1888 33.69C84.1888 31.92 83.8588 31.035 83.1988 31.035Z" fill="white"/>
<path d="M52.115 56.505L51.5344 56.8437L51.5446 56.8611L51.5557 56.8778L52.115 56.505ZM51.62 60.78L51.1113 60.3407L51.1045 60.3485L51.098 60.3565L51.62 60.78ZM47.39 64.695L47.0171 64.1357L47.012 64.1392L47.39 64.695ZM36.365 62.625L35.7698 62.9375L35.773 62.9432L36.365 62.625ZM35.87 40.8L35.2115 40.6649L35.2107 40.669L35.87 40.8ZM40.055 28.74L39.4669 28.4145L39.4647 28.4185L40.055 28.74ZM50.045 25.725L49.4686 26.0708L49.4732 26.0784L49.4779 26.0859L50.045 25.725ZM48.335 43.86L47.7154 43.5995L48.335 43.86ZM40.28 57.855L39.7381 57.4574L39.5695 57.6872L39.6174 57.9681L40.28 57.855ZM41.315 60.51L40.8126 60.9566L40.819 60.9637L40.8255 60.9707L41.315 60.51ZM46.445 60.24L46.8456 60.7799L46.8565 60.7715L46.445 60.24ZM50 56.595L49.4896 56.1576L49.4859 56.162L50 56.595ZM43.34 31.89L42.7055 31.6683L43.34 31.89ZM41.045 41.16L40.3833 41.0417L41.045 41.16ZM39.965 51.78L39.293 51.7681L39.2489 54.2556L40.5396 52.1287L39.965 51.78ZM45.05 41.25L45.6826 41.4771L45.6832 41.4754L45.05 41.25ZM51.215 56.6372C51.3466 56.6372 51.4348 56.6729 51.5344 56.8437L52.6956 56.1663C52.3752 55.6171 51.8634 55.2928 51.215 55.2928V56.6372ZM51.5557 56.8778C51.6957 57.0877 51.8028 57.4353 51.8028 57.99H53.1472C53.1472 57.2847 53.0143 56.6422 52.6743 56.1322L51.5557 56.8778ZM51.8028 57.99C51.8028 59.0893 51.542 59.8419 51.1113 60.3407L52.1287 61.2193C52.838 60.3981 53.1472 59.2907 53.1472 57.99H51.8028ZM51.098 60.3565C49.8458 61.8999 48.4849 63.1572 47.0172 64.1357L47.7628 65.2543C49.3551 64.1928 50.8142 62.8401 52.142 61.2035L51.098 60.3565ZM47.012 64.1392C45.6302 65.0788 44.0535 65.5528 42.26 65.5528V66.8972C44.3065 66.8972 46.1498 66.3512 47.768 65.2508L47.012 64.1392ZM42.26 65.5528C41.0451 65.5528 40.0188 65.2779 39.1566 64.7514C38.2932 64.2241 37.556 63.4211 36.9571 62.3068L35.773 62.9432C36.464 64.2289 37.3543 65.2259 38.4559 65.8986C39.5587 66.5721 40.8349 66.8972 42.26 66.8972V65.5528ZM36.9601 62.3126C35.767 60.04 35.1472 57.0527 35.1472 53.31H33.8028C33.8028 57.1873 34.443 60.41 35.7699 62.9374L36.9601 62.3126ZM35.1472 53.31C35.1472 49.7049 35.6054 45.5801 36.5293 40.931L35.2107 40.669C34.2746 45.3799 33.8028 49.5951 33.8028 53.31H35.1472ZM36.5284 40.9351C37.4782 36.3048 38.8539 32.3507 40.6453 29.0615L39.4647 28.4185C37.5961 31.8493 36.1818 35.9352 35.2116 40.6649L36.5284 40.9351ZM40.6431 29.0655C42.4502 25.801 44.4751 24.3722 46.67 24.3722V23.0278C43.7649 23.0278 41.3798 24.959 39.4669 28.4145L40.6431 29.0655ZM46.67 24.3722C47.8485 24.3722 48.7664 24.9005 49.4686 26.0708L50.6214 25.3792C49.7036 23.8495 48.3715 23.0278 46.67 23.0278V24.3722ZM49.4779 26.0859C50.2199 27.2517 50.6328 29.0089 50.6328 31.44H51.9772C51.9772 28.8911 51.5501 26.8383 50.6121 25.3641L49.4779 26.0859ZM50.6328 31.44C50.6328 34.8908 49.6745 38.9392 47.7154 43.5995L48.9546 44.1205C50.9555 39.3608 51.9772 35.1292 51.9772 31.44H50.6328ZM47.7154 43.5995C45.7581 48.2554 43.1006 52.8748 39.7381 57.4574L40.8219 58.2526C44.2394 53.5952 46.9519 48.8846 48.9546 44.1205L47.7154 43.5995ZM39.6174 57.9681C39.8351 59.2428 40.2082 60.2766 40.8126 60.9566L41.8174 60.0634C41.4618 59.6634 41.1449 58.9272 40.9426 57.7419L39.6174 57.9681ZM40.8255 60.9707C41.4477 61.6317 42.263 61.9472 43.205 61.9472V60.6028C42.587 60.6028 42.1423 60.4083 41.8045 60.0493L40.8255 60.9707ZM43.205 61.9472C44.5697 61.9472 45.7922 61.5613 46.8455 60.7798L46.0445 59.7002C45.2378 60.2987 44.3003 60.6028 43.205 60.6028V61.9472ZM46.8565 60.7715C47.844 60.007 49.0657 58.748 50.5141 57.028L49.4859 56.162C48.0543 57.862 46.906 59.033 46.0335 59.7085L46.8565 60.7715ZM50.5103 57.0324C50.7745 56.7242 51.0054 56.6372 51.215 56.6372V55.2928C50.5246 55.2928 49.9455 55.6258 49.4897 56.1576L50.5103 57.0324ZM45.68 27.4828C45.2955 27.4828 44.9687 27.6575 44.7112 27.8755C44.4546 28.0929 44.2225 28.3894 44.0079 28.7319C43.5782 29.4178 43.1462 30.407 42.7055 31.6683L43.9745 32.1117C44.4038 30.883 44.7968 30.0047 45.1471 29.4456C45.3225 29.1656 45.4692 28.9953 45.58 28.9014C45.6901 28.8082 45.7195 28.8272 45.68 28.8272V27.4828ZM42.7055 31.6683C41.8199 34.2027 41.0472 37.3299 40.3833 41.0417L41.7067 41.2783C42.3628 37.6101 43.1201 34.5573 43.9745 32.1117L42.7055 31.6683ZM40.3833 41.0417C39.7177 44.7632 39.3536 48.3389 39.293 51.7681L40.637 51.7919C40.6964 48.4411 41.0523 44.9368 41.7067 41.2783L40.3833 41.0417ZM40.5396 52.1287C42.6907 48.584 44.406 45.0335 45.6826 41.4771L44.4174 41.0229C43.174 44.4865 41.4993 47.956 39.3904 51.4313L40.5396 52.1287ZM45.6832 41.4754C46.9619 37.883 47.6122 34.5805 47.6122 31.575H46.2678C46.2678 34.3895 45.6581 37.537 44.4168 41.0246L45.6832 41.4754ZM47.6122 31.575C47.6122 30.4126 47.5076 29.4613 47.2557 28.7776C47.1283 28.4317 46.9474 28.1102 46.6822 27.8703C46.4027 27.6174 46.0588 27.4828 45.68 27.4828V28.8272C45.7212 28.8272 45.7448 28.8351 45.7803 28.8672C45.8301 28.9123 45.9117 29.0183 45.9943 29.2424C46.1624 29.6987 46.2678 30.4574 46.2678 31.575H47.6122ZM72.0577 56.505L71.4771 56.8437L71.4873 56.8611L71.4985 56.8778L72.0577 56.505ZM71.5627 60.78L71.054 60.3407L71.0487 60.3468L71.0435 60.3531L71.5627 60.78ZM66.8377 64.515L66.5098 63.9282L66.5061 63.9303L66.8377 64.515ZM53.0227 63.66L53.4939 63.1806L53.0227 63.66ZM51.7177 50.88L52.321 51.1765L52.3229 51.1725L51.7177 50.88ZM55.3177 46.605L54.9424 46.0474L54.9374 46.0508L55.3177 46.605ZM64.7677 46.605L64.2924 47.0803L64.2994 47.0871L64.7677 46.605ZM64.0927 56.145L63.6175 55.6697L64.0927 56.145ZM56.5777 59.655L56.4173 59.0023L55.571 59.2103L55.9872 59.976L56.5777 59.655ZM65.4427 60.33L65.7639 60.9205L65.7674 60.9185L65.4427 60.33ZM69.9427 56.595L69.4323 56.1575L69.4239 56.1677L69.9427 56.595ZM56.9827 51.375L56.4075 51.0272L56.4017 51.0372L56.9827 51.375ZM55.8577 56.145H55.1856V56.9953L56.0129 56.799L55.8577 56.145ZM60.0427 54.255L59.6154 53.7361H59.6154L60.0427 54.255ZM61.0777 49.98L60.5614 50.4103L60.5809 50.4337L60.6025 50.4553L61.0777 49.98ZM71.1577 56.6372C71.2893 56.6372 71.3775 56.6729 71.4771 56.8437L72.6383 56.1663C72.318 55.6171 71.8062 55.2928 71.1577 55.2928V56.6372ZM71.4985 56.8778C71.6384 57.0878 71.7456 57.4353 71.7456 57.99H73.0899C73.0899 57.2847 72.9571 56.6422 72.617 56.1322L71.4985 56.8778ZM71.7456 57.99C71.7456 59.0893 71.4848 59.8419 71.054 60.3407L72.0714 61.2193C72.7807 60.3981 73.0899 59.2907 73.0899 57.99H71.7456ZM71.0435 60.3531C70.0014 61.6206 68.4999 62.8162 66.5098 63.9282L67.1656 65.1018C69.2556 63.9338 70.9041 62.6394 72.0819 61.2069L71.0435 60.3531ZM66.5061 63.9303C64.5972 65.013 62.5515 65.5528 60.3577 65.5528V66.8972C62.784 66.8972 65.0583 66.297 67.1693 65.0997L66.5061 63.9303ZM60.3577 65.5528C57.3305 65.5528 55.0746 64.7341 53.4939 63.1806L52.5516 64.1394C54.4509 66.0059 57.085 66.8972 60.3577 66.8972V65.5528ZM53.4939 63.1806C51.9095 61.6236 51.0849 59.4716 51.0849 56.64H49.7406C49.7406 59.7484 50.6559 62.2764 52.5516 64.1394L53.4939 63.1806ZM51.0849 56.64C51.0849 54.6676 51.4986 52.8497 52.321 51.1765L51.1145 50.5835C50.1969 52.4503 49.7406 54.4724 49.7406 56.64H51.0849ZM52.3229 51.1725C53.1461 49.4694 54.2719 48.1379 55.6981 47.1592L54.9374 46.0508C53.3035 47.1721 52.0294 48.6906 51.1126 50.5875L52.3229 51.1725ZM55.6931 47.1626C57.1379 46.1901 58.7612 45.7022 60.5827 45.7022V44.3578C58.5043 44.3578 56.6176 44.9199 54.9424 46.0474L55.6931 47.1626ZM60.5827 45.7022C62.1775 45.7022 63.3901 46.1779 64.2924 47.0803L65.243 46.1297C64.0454 44.9321 62.468 44.3578 60.5827 44.3578V45.7022ZM64.2994 47.0871C65.1925 47.9547 65.6706 49.1609 65.6706 50.79H67.0149C67.0149 48.8791 66.443 47.2953 65.2361 46.1229L64.2994 47.0871ZM65.6706 50.79C65.6706 52.6768 64.9949 54.2923 63.6175 55.6697L64.568 56.6203C66.1906 54.9977 67.0149 53.0432 67.0149 50.79H65.6706ZM63.6175 55.6697C62.2775 57.0097 59.9164 58.1423 56.4173 59.0023L56.7382 60.3077C60.3191 59.4277 62.968 58.2203 64.568 56.6203L63.6175 55.6697ZM55.9872 59.976C56.8943 61.645 58.6019 62.3972 60.8527 62.3972V61.0528C58.9036 61.0528 57.7612 60.425 57.1683 59.334L55.9872 59.976ZM60.8527 62.3972C62.3536 62.3972 63.996 61.8819 65.7639 60.9205L65.1216 59.7395C63.4694 60.6381 62.0519 61.0528 60.8527 61.0528V62.3972ZM65.7674 60.9185C67.5816 59.9176 69.1475 58.618 70.4616 57.0223L69.4239 56.1677C68.218 57.632 66.7839 58.8224 65.118 59.7415L65.7674 60.9185ZM70.4531 57.0324C70.7173 56.7242 70.9482 56.6372 71.1577 56.6372V55.2928C70.4673 55.2928 69.8882 55.6258 69.4324 56.1576L70.4531 57.0324ZM59.8177 48.7678C58.3913 48.7678 57.2604 49.6167 56.4076 51.0272L57.5579 51.7228C58.265 50.5533 59.0242 50.1122 59.8177 50.1122V48.7678ZM56.4017 51.0372C55.5799 52.4506 55.1856 54.133 55.1856 56.055H56.5299C56.5299 54.317 56.8856 52.8794 57.5638 51.7128L56.4017 51.0372ZM55.1856 56.055V56.145H56.5299V56.055H55.1856ZM56.0129 56.799C57.8472 56.3637 59.3468 55.6989 60.47 54.7739L59.6154 53.7361C58.6987 54.4911 57.4082 55.0863 55.7025 55.491L56.0129 56.799ZM60.47 54.7739C61.6124 53.8331 62.2449 52.6797 62.2449 51.33H60.9006C60.9006 52.2003 60.5131 52.9969 59.6154 53.7361L60.47 54.7739ZM62.2449 51.33C62.2449 50.6237 62.036 49.9876 61.553 49.5047L60.6025 50.4553C60.7795 50.6324 60.9006 50.8963 60.9006 51.33H62.2449ZM61.5941 49.5497C61.1461 49.0122 60.5233 48.7678 59.8177 48.7678V50.1122C60.1922 50.1122 60.4093 50.2278 60.5614 50.4103L61.5941 49.5497ZM78.4287 49.305V48.6328H77.7829L77.7571 49.2781L78.4287 49.305ZM78.6538 57.9L77.9912 58.0131L77.9928 58.0225L77.9946 58.0318L78.6538 57.9ZM79.7788 60.51L79.2901 60.9715L79.3033 60.9855L79.3172 60.9987L79.7788 60.51ZM83.6938 60.825L83.4156 60.2131L83.6938 60.825ZM85.4938 59.655L85.9403 60.1574L85.9459 60.1524L85.4938 59.655ZM87.3387 59.835L86.7376 60.1356L86.7508 60.1621L86.7663 60.1873L87.3387 59.835ZM87.3387 62.94L86.7245 62.667L86.7181 62.6816L86.7123 62.6964L87.3387 62.94ZM86.3488 64.29L85.9288 63.7651L85.9204 63.772L86.3488 64.29ZM74.7837 62.67L74.1948 62.9939L74.1965 62.9971L74.7837 62.67ZM72.9388 49.305L73.6094 49.3497L73.6572 48.6328H72.9388V49.305ZM69.3387 48.81L68.8414 49.2621L68.8522 49.274L68.8635 49.2853L69.3387 48.81ZM73.4788 44.715V45.3872H74.055L74.143 44.8177L73.4788 44.715ZM75.8187 35.67L75.1914 35.4287V35.4287L75.8187 35.67ZM79.5988 29.145L79.1055 28.6883L79.101 28.6933L79.5988 29.145ZM87.3838 28.38L87.9477 28.0142L87.3838 28.38ZM82.6138 44.715L82.1684 44.2116L80.8395 45.3872H82.6138V44.715ZM81.6688 32.745L81.0675 32.4444L81.0643 32.451L81.6688 32.745ZM80.0938 37.425L79.4422 37.2597L79.4405 37.2666L80.0938 37.425ZM78.8787 44.04L78.2127 43.9495L77.9735 45.711L79.3183 44.5485L78.8787 44.04ZM82.8388 38.91L82.2301 38.6247L82.2282 38.6289L82.8388 38.91ZM77.7571 49.2781C77.697 50.7813 77.6666 51.9617 77.6666 52.815H79.0109C79.0109 51.9883 79.0405 50.8287 79.1004 49.3319L77.7571 49.2781ZM77.6666 52.815C77.6666 54.9898 77.7718 56.7283 77.9912 58.0131L79.3163 57.7869C79.1157 56.6117 79.0109 54.9602 79.0109 52.815H77.6666ZM77.9946 58.0318C78.245 59.2836 78.6541 60.2981 79.2901 60.9715L80.2674 60.0485C79.8834 59.6419 79.5425 58.9164 79.3129 57.7682L77.9946 58.0318ZM79.3172 60.9987C80.0114 61.6543 80.9274 61.9472 81.9837 61.9472V60.6028C81.1801 60.6028 80.6261 60.3857 80.2403 60.0213L79.3172 60.9987ZM81.9837 61.9472C82.5959 61.9472 83.265 61.7582 83.9719 61.4369L83.4156 60.2131C82.8025 60.4918 82.3316 60.6028 81.9837 60.6028V61.9472ZM83.9719 61.4369C84.693 61.1091 85.3498 60.6823 85.9403 60.1574L85.0472 59.1526C84.5577 59.5877 84.0145 59.9409 83.4156 60.2131L83.9719 61.4369ZM85.9459 60.1524C86.1962 59.9248 86.3722 59.8772 86.4837 59.8772V58.5328C85.9352 58.5328 85.4513 58.7852 85.0416 59.1576L85.9459 60.1524ZM86.4837 59.8772C86.5229 59.8772 86.5439 59.8853 86.5688 59.9036C86.6024 59.9284 86.6652 59.9909 86.7376 60.1356L87.9399 59.5344C87.6569 58.9684 87.1784 58.5328 86.4837 58.5328V59.8772ZM86.7663 60.1873C86.9269 60.4482 87.0266 60.7991 87.0266 61.275H88.3709C88.3709 60.6109 88.2306 60.0018 87.9112 59.4827L86.7663 60.1873ZM87.0266 61.275C87.0266 61.7475 86.9278 62.2097 86.7245 62.667L87.953 63.213C88.2297 62.5903 88.3709 61.9425 88.3709 61.275H87.0266ZM86.7123 62.6964C86.5449 63.1267 86.2859 63.4795 85.9289 63.7651L86.7686 64.8149C87.3116 64.3805 87.7126 63.8333 87.9652 63.1836L86.7123 62.6964ZM85.9204 63.772C84.478 64.9648 82.8586 65.5528 81.0387 65.5528V66.8972C83.1789 66.8972 85.0995 66.1952 86.7771 64.808L85.9204 63.772ZM81.0387 65.5528C79.7082 65.5528 78.5933 65.2769 77.6696 64.7519C76.7476 64.2279 75.9791 63.4349 75.371 62.3429L74.1965 62.9971C74.9084 64.2751 75.8424 65.2596 77.0054 65.9206C78.1667 66.5806 79.5193 66.8972 81.0387 66.8972V65.5528ZM75.3727 62.3461C74.1248 60.0772 73.4759 57.0798 73.4759 53.31H72.1316C72.1316 57.2202 72.8027 60.4628 74.1948 62.9939L75.3727 62.3461ZM73.4759 53.31C73.4759 52.0053 73.5204 50.6852 73.6094 49.3497L72.2681 49.2603C72.1771 50.6248 72.1316 51.9747 72.1316 53.31H73.4759ZM72.9388 48.6328H71.1838V49.9772H72.9388V48.6328ZM71.1838 48.6328C70.3158 48.6328 69.9428 48.4634 69.814 48.3347L68.8635 49.2853C69.3947 49.8166 70.2517 49.9772 71.1838 49.9772V48.6328ZM69.8361 48.3579C69.7002 48.2084 69.5609 47.8849 69.5609 47.235H68.2166C68.2166 48.0251 68.3773 48.7516 68.8414 49.2621L69.8361 48.3579ZM69.5609 47.235C69.5609 46.4673 69.718 46.0161 69.9189 45.766C70.0973 45.5441 70.3861 45.3872 70.9137 45.3872V44.0428C70.0914 44.0428 69.3677 44.3059 68.871 44.924C68.397 45.5139 68.2166 46.3227 68.2166 47.235H69.5609ZM70.9137 45.3872H73.4788V44.0428H70.9137V45.3872ZM74.143 44.8177C74.6467 41.5585 75.4155 38.5908 76.4461 35.9113L75.1914 35.4287C74.122 38.2092 73.3308 41.2715 72.8145 44.6123L74.143 44.8177ZM76.4461 35.9113C77.4757 33.2342 78.6977 31.1383 80.0965 29.5967L79.101 28.6933C77.5598 30.3917 76.2618 32.6458 75.1914 35.4287L76.4461 35.9113ZM80.0919 29.6017C81.5039 28.0767 82.9418 27.3872 84.4137 27.3872V26.0428C82.4657 26.0428 80.6936 26.9732 79.1055 28.6883L80.0919 29.6017ZM84.4137 27.3872C85.4327 27.3872 86.2163 27.8154 86.8198 28.7458L87.9477 28.0142C87.1112 26.7246 85.9148 26.0428 84.4137 26.0428V27.3872ZM86.8198 28.7458C87.4524 29.7209 87.7916 30.98 87.7916 32.565H89.1359C89.1359 30.79 88.7551 29.2591 87.9477 28.0142L86.8198 28.7458ZM87.7916 32.565C87.7916 36.9981 85.9434 40.8721 82.1684 44.2116L83.0591 45.2184C87.0841 41.6579 89.1359 37.4319 89.1359 32.565H87.7916ZM82.6138 45.3872H87.6538V44.0428H82.6138V45.3872ZM87.6538 45.3872C88.0607 45.3872 88.1883 45.4801 88.2135 45.5053L89.164 44.5547C88.7692 44.1599 88.2068 44.0428 87.6538 44.0428V45.3872ZM88.2135 45.5053C88.2105 45.5024 88.2435 45.5341 88.276 45.6547C88.3083 45.7748 88.3316 45.9519 88.3316 46.2H89.6759C89.6759 45.5969 89.5749 44.9656 89.164 44.5547L88.2135 45.5053ZM88.3316 46.2C88.3316 47.0128 88.0197 47.5658 87.3822 47.9551C86.6908 48.3773 85.5672 48.6328 83.9188 48.6328V49.9772C85.6603 49.9772 87.0792 49.7152 88.0828 49.1024C89.1403 48.4567 89.6759 47.4572 89.6759 46.2H88.3316ZM83.9188 48.6328H78.4287V49.9772H83.9188V48.6328ZM83.1987 30.3628C82.6841 30.3628 82.2753 30.6819 81.9778 31.0143C81.6653 31.3636 81.3641 31.8514 81.0676 32.4444L82.2699 33.0456C82.5434 32.4986 82.7822 32.1314 82.9797 31.9107C83.1922 31.6731 83.2634 31.7072 83.1987 31.7072V30.3628ZM81.0643 32.451C80.4953 33.6205 79.957 35.2309 79.4422 37.2597L80.7453 37.5903C81.2505 35.5991 81.7622 34.0895 82.2732 33.039L81.0643 32.451ZM79.4405 37.2666C78.9541 39.273 78.5452 41.5011 78.2127 43.9495L79.5448 44.1304C79.8723 41.7189 80.2734 39.537 80.747 37.5834L79.4405 37.2666ZM79.3183 44.5485C81.1518 42.9636 82.5345 41.1785 83.4493 39.1911L82.2282 38.6289C81.403 40.4215 80.1457 42.0564 78.4392 43.5315L79.3183 44.5485ZM83.4474 39.1953C84.375 37.2163 84.8609 35.3774 84.8609 33.69H83.5166C83.5166 35.1226 83.1025 36.7637 82.2301 38.6247L83.4474 39.1953ZM84.8609 33.69C84.8609 32.7823 84.7788 32.0212 84.571 31.4639C84.4655 31.181 84.312 30.9073 84.0798 30.6998C83.8337 30.4798 83.5301 30.3628 83.1987 30.3628V31.7072C83.2046 31.7072 83.1999 31.7078 83.1903 31.7042C83.1808 31.7005 83.1784 31.6971 83.1839 31.7021C83.1993 31.7158 83.252 31.774 83.3115 31.9336C83.4337 32.2613 83.5166 32.8277 83.5166 33.69H84.8609Z" fill="#1671D6"/>
<path d="M143.48 65.32C141.453 65.32 139.68 64.8667 138.16 63.96C136.64 63.0267 135.453 61.7733 134.6 60.2C133.773 58.6267 133.36 56.8933 133.36 55C133.36 53.08 133.76 51.3467 134.56 49.8C135.36 48.2267 136.507 46.9867 138 46.08C139.493 45.1467 141.253 44.68 143.28 44.68C145.333 44.68 147.093 45.1467 148.56 46.08C150.053 46.9867 151.2 48.2267 152 49.8C152.8 51.3467 153.2 53.08 153.2 55V56.2H136.44C136.6 57.3733 136.973 58.4533 137.56 59.44C138.173 60.4 138.987 61.1733 140 61.76C141.013 62.32 142.187 62.6 143.52 62.6C144.933 62.6 146.12 62.2933 147.08 61.68C148.04 61.04 148.787 60.2267 149.32 59.24H152.6C151.907 61.0267 150.8 62.4933 149.28 63.64C147.787 64.76 145.853 65.32 143.48 65.32ZM136.48 53.4H150.08C149.813 51.6933 149.093 50.2667 147.92 49.12C146.747 47.9733 145.2 47.4 143.28 47.4C141.36 47.4 139.813 47.9733 138.64 49.12C137.493 50.2667 136.773 51.6933 136.48 53.4Z" fill="#156ED1"/>
<path d="M138.16 63.96L137.637 64.8122L137.648 64.8188L138.16 63.96ZM134.6 60.2L133.715 60.6652L133.721 60.6768L134.6 60.2ZM134.56 49.8L135.448 50.2594L135.451 50.2532L134.56 49.8ZM138 46.08L138.519 46.9349L138.53 46.928L138 46.08ZM148.56 46.08L148.023 46.9237L148.032 46.9293L148.041 46.9348L148.56 46.08ZM152 49.8L151.109 50.2533L151.112 50.2594L152 49.8ZM153.2 56.2V57.2H154.2V56.2H153.2ZM136.44 56.2V55.2H135.294L135.449 56.3351L136.44 56.2ZM137.56 59.44L136.7 59.9511L136.709 59.9649L136.717 59.9784L137.56 59.44ZM140 61.76L139.499 62.6254L139.508 62.6304L139.516 62.6352L140 61.76ZM147.08 61.68L147.618 62.5227L147.627 62.5175L147.635 62.5121L147.08 61.68ZM149.32 59.24V58.24H148.724L148.44 58.7645L149.32 59.24ZM152.6 59.24L153.532 59.6018L154.061 58.24H152.6V59.24ZM149.28 63.64L149.88 64.44L149.882 64.4383L149.28 63.64ZM136.48 53.4L135.494 53.2306L135.293 54.4H136.48V53.4ZM150.08 53.4V54.4H151.248L151.068 53.2456L150.08 53.4ZM147.92 49.12L148.619 48.4048V48.4048L147.92 49.12ZM138.64 49.12L137.941 48.4048L137.933 48.4129L138.64 49.12ZM143.48 64.32C141.607 64.32 140.016 63.9027 138.672 63.1012L137.648 64.8188C139.344 65.8306 141.3 66.32 143.48 66.32V64.32ZM138.683 63.1078C137.313 62.2666 136.249 61.143 135.479 59.7232L133.721 60.6768C134.658 62.4037 135.967 63.7867 137.637 64.8122L138.683 63.1078ZM135.485 59.7349C134.739 58.3143 134.36 56.7422 134.36 55H132.36C132.36 57.0445 132.808 58.939 133.715 60.6651L135.485 59.7349ZM134.36 55C134.36 53.2232 134.729 51.65 135.448 50.2594L133.672 49.3406C132.791 51.0434 132.36 52.9368 132.36 55H134.36ZM135.451 50.2532C136.168 48.844 137.186 47.7438 138.519 46.9348L137.481 45.2252C135.827 46.2295 134.552 47.6093 133.669 49.3468L135.451 50.2532ZM138.53 46.928C139.842 46.1083 141.412 45.68 143.28 45.68V43.68C141.095 43.68 139.145 44.1851 137.47 45.232L138.53 46.928ZM143.28 45.68C145.178 45.68 146.744 46.1097 148.023 46.9237L149.097 45.2363C147.443 44.1836 145.489 43.68 143.28 43.68V45.68ZM148.041 46.9348C149.374 47.7438 150.392 48.844 151.109 50.2532L152.891 49.3468C152.008 47.6093 150.733 46.2295 149.079 45.2252L148.041 46.9348ZM151.112 50.2594C151.831 51.65 152.2 53.2232 152.2 55H154.2C154.2 52.9368 153.769 51.0434 152.888 49.3406L151.112 50.2594ZM152.2 55V56.2H154.2V55H152.2ZM153.2 55.2H136.44V57.2H153.2V55.2ZM135.449 56.3351C135.627 57.637 136.043 58.8455 136.7 59.9511L138.42 58.9289C137.904 58.0612 137.573 57.1097 137.431 56.0649L135.449 56.3351ZM136.717 59.9784C137.419 61.077 138.351 61.9609 139.499 62.6254L140.501 60.8946C139.622 60.3857 138.927 59.723 138.403 58.9016L136.717 59.9784ZM139.516 62.6352C140.699 63.2888 142.043 63.6 143.52 63.6V61.6C142.33 61.6 141.328 61.3512 140.484 60.8848L139.516 62.6352ZM143.52 63.6C145.078 63.6 146.463 63.2609 147.618 62.5227L146.542 60.8373C145.777 61.3257 144.788 61.6 143.52 61.6V63.6ZM147.635 62.5121C148.726 61.7842 149.586 60.85 150.2 59.7155L148.44 58.7645C147.987 59.6033 147.354 60.2958 146.525 60.8479L147.635 62.5121ZM149.32 60.24H152.6V58.24H149.32V60.24ZM151.668 58.8782C151.041 60.4927 150.048 61.8078 148.678 62.8417L149.882 64.4383C151.552 63.1789 152.772 61.5606 153.532 59.6018L151.668 58.8782ZM148.68 62.84C147.402 63.7986 145.696 64.32 143.48 64.32V66.32C146.01 66.32 148.171 65.7214 149.88 64.44L148.68 62.84ZM136.48 54.4H150.08V52.4H136.48V54.4ZM151.068 53.2456C150.77 51.3378 149.955 49.7106 148.619 48.4048L147.221 49.8352C148.232 50.8227 148.857 52.0489 149.092 53.5544L151.068 53.2456ZM148.619 48.4048C147.227 47.0447 145.413 46.4 143.28 46.4V48.4C144.987 48.4 146.266 48.902 147.221 49.8352L148.619 48.4048ZM143.28 46.4C141.147 46.4 139.333 47.0447 137.941 48.4048L139.339 49.8352C140.294 48.902 141.573 48.4 143.28 48.4V46.4ZM137.933 48.4129C136.63 49.7159 135.82 51.3348 135.494 53.2306L137.466 53.5694C137.726 52.0518 138.357 50.8175 139.347 49.8271L137.933 48.4129Z" fill="#156ED1"/>
<path d="M114.611 66V52.8056C114.611 49.5992 112.012 47 108.806 47V47C105.599 47 103 49.5992 103 52.8056V66" stroke="#156ED1" stroke-width="5"/>
<path d="M126.222 66V52.8056C126.222 49.5992 123.623 47 120.417 47V47C117.211 47 114.611 49.5992 114.611 52.8056V66" stroke="#156ED1" stroke-width="5"/>
<path fill-rule="evenodd" clip-rule="evenodd" d="M177.035 54H177.046V35H171.546V45.7711C170.06 44.9646 168.358 44.5063 166.546 44.5063C160.701 44.5063 156 49.2755 156 55.1134C156 60.9513 160.701 65.7205 166.546 65.7205C172.391 65.7205 177.092 60.9513 177.092 55.1134C177.092 54.7375 177.073 54.366 177.035 54ZM161.5 55.1134C161.5 52.2725 163.779 50.0063 166.546 50.0063C169.313 50.0063 171.592 52.2725 171.592 55.1134C171.592 57.9543 169.313 60.2205 166.546 60.2205C163.779 60.2205 161.5 57.9543 161.5 55.1134Z" fill="#156ED1"/>
</svg>
