<svg width="393" height="691" viewBox="0 0 393 691" fill="none" xmlns="http://www.w3.org/2000/svg">
<g opacity="0.4" filter="url(#filter0_f_4165_15063)">
<path fill-rule="evenodd" clip-rule="evenodd" d="M73.6835 680.069H321.207C338.346 680.069 358.754 680.94 358.754 682.016C358.754 683.092 336.959 683.963 321.207 683.963H73.6835C56.2969 683.963 34.1055 683.092 34.1055 682.016C34.1055 680.94 55.9502 680.069 73.6835 680.069Z" fill="url(#paint0_linear_4165_15063)"/>
</g>
<g opacity="0.1" filter="url(#filter1_f_4165_15063)">
<path fill-rule="evenodd" clip-rule="evenodd" d="M52.4315 679.044H342.998C357.771 679.044 387.108 680.427 387.108 682.118C387.108 683.808 360.04 685.191 337.247 685.191H52.4315C33.384 685.191 6 683.808 6 682.118C6 680.427 32.5398 679.044 52.4315 679.044Z" fill="url(#paint1_linear_4165_15063)"/>
</g>
<path fill-rule="evenodd" clip-rule="evenodd" d="M28.1365 117.879V93.5453L29.0165 92.7256H31.3514V118.699H28.9845L28.1365 117.879ZM364.21 157.479H366.412L368.614 158.607V235.911L366.412 236.987H364.21V157.479ZM27.8184 141.904V190.265L30.02 191.341H31.0952V140.777H29.9688L27.8184 141.904ZM27.8184 252.867V204.507L29.9688 203.38H31.0952V253.943H30.02L27.8184 252.867Z" fill="#C0C0C0"/>
<mask id="mask0_4165_15063" style="mask-type:alpha" maskUnits="userSpaceOnUse" x="27" y="92" width="342" height="162">
<path fill-rule="evenodd" clip-rule="evenodd" d="M28.1365 117.879V93.5453L29.0165 92.7256H31.3514V118.699H28.9845L28.1365 117.879ZM364.21 157.479H366.412L368.614 158.607V235.911L366.412 236.987H364.21V157.479ZM27.8184 141.904V190.265L30.02 191.341H31.0952V140.777H29.9688L27.8184 141.904ZM27.8184 252.867V204.507L29.9688 203.38H31.0952V253.943H30.02L27.8184 252.867Z" fill="white"/>
</mask>
<g mask="url(#mask0_4165_15063)">
<g opacity="0.3" filter="url(#filter2_f_4165_15063)">
<path fill-rule="evenodd" clip-rule="evenodd" d="M26.4355 144.107L31.0949 141.392V135.654L26.4355 138.369V144.107ZM26.4355 193.799L31.0949 196.514V190.777L26.4355 188.062V193.799ZM26.4355 206.658L31.0949 203.943V198.205L26.4355 200.92V206.658ZM26.4355 256.402L31.0949 259.117V253.379L26.4355 250.664V256.402ZM365.029 151.894V157.631L369.688 160.346V154.609L365.029 151.894ZM365.029 242.314L369.688 239.599V233.861L365.029 236.576V242.314ZM27.2533 94.1078H31.9126V88.3701H27.2533V94.1078ZM27.2533 123.309H31.9126V117.571H27.2533V123.309Z" fill="black"/>
</g>
<path opacity="0.9" fill-rule="evenodd" clip-rule="evenodd" d="M29.7101 96.1204V115.011C29.7101 119.577 28.0626 119.313 27.7605 119.265C27.73 119.26 27.7132 119.257 27.7132 119.262V91.6494C27.7132 91.6494 29.7101 91.7659 29.7101 96.1204ZM25.6641 138.216H26.7393C28.5313 138.216 30.0162 141.904 30.0162 143.697V188.728C30.0162 190.521 28.5313 194.209 26.7393 194.209H25.6641V138.216ZM26.7401 200.613H25.5625V256.453H26.7401C28.5322 256.453 30.017 252.765 30.017 250.972V206.044C30.017 204.251 28.5322 200.613 26.7401 200.613ZM366.408 160.195C366.408 158.402 367.893 154.714 369.685 154.714H371.068V240.062H369.685C367.893 240.062 366.408 236.373 366.408 234.58V160.195Z" fill="#EFEFEF"/>
<mask id="mask1_4165_15063" style="mask-type:alpha" maskUnits="userSpaceOnUse" x="25" y="91" width="347" height="166">
<path fill-rule="evenodd" clip-rule="evenodd" d="M29.7101 96.1204V115.011C29.7101 119.577 28.0626 119.313 27.7605 119.265C27.73 119.26 27.7132 119.257 27.7132 119.262V91.6494C27.7132 91.6494 29.7101 91.7659 29.7101 96.1204ZM25.6641 138.216H26.7393C28.5313 138.216 30.0162 141.904 30.0162 143.697V188.728C30.0162 190.521 28.5313 194.209 26.7393 194.209H25.6641V138.216ZM26.7401 200.613H25.5625V256.453H26.7401C28.5322 256.453 30.017 252.765 30.017 250.972V206.044C30.017 204.251 28.5322 200.613 26.7401 200.613ZM366.408 160.195C366.408 158.402 367.893 154.714 369.685 154.714H371.068V240.062H369.685C367.893 240.062 366.408 236.373 366.408 234.58V160.195Z" fill="white"/>
</mask>
<g mask="url(#mask1_4165_15063)">
<g opacity="0.7" filter="url(#filter3_f_4165_15063)">
<path fill-rule="evenodd" clip-rule="evenodd" d="M26.4355 93.6977L31.0949 91.3412V86.167L26.4355 88.5235V93.6977ZM26.4355 122.642L31.0949 124.998V119.824L26.4355 117.468V122.642ZM26.4355 142.467L31.0949 139.752V134.015L26.4355 136.73V142.467ZM26.4355 195.184L29.9172 197.233L26.4355 199.282V205.02L31.0949 202.304V192.212L26.4355 189.497V195.184ZM26.4355 257.734L31.0949 260.449V254.711L26.4355 251.996V257.734ZM364.773 151.894V157.631L369.433 160.346V154.609L364.773 151.894ZM364.773 242.568L369.433 239.853V234.115L364.773 236.83V242.568Z" fill="black"/>
</g>
<g opacity="0.2" filter="url(#filter4_f_4165_15063)">
<path fill-rule="evenodd" clip-rule="evenodd" d="M26.4336 144.109L31.0929 141.394V135.656L26.4336 138.371V144.109ZM26.4337 193.8L31.093 196.515V190.778L26.4337 188.062V193.8ZM26.4336 206.66L31.0929 203.945V198.207L26.4336 200.922V206.66ZM26.4336 256.405L31.0929 259.12V253.382L26.4336 250.667V256.405ZM365.027 151.896V157.634L369.686 160.349V154.612L365.027 151.896ZM365.027 242.315L369.686 239.6V233.862L365.027 236.577V242.315ZM26.4336 94.7243L31.0929 92.0092V86.2715L26.4336 88.9866V94.7243ZM26.4336 122.336L31.0929 125.513V119.775L26.4336 116.599V122.336Z" fill="black"/>
</g>
<g filter="url(#filter5_f_4165_15063)">
<path fill-rule="evenodd" clip-rule="evenodd" d="M26.4336 143.799L31.0929 141.084V135.347L26.4336 138.062V143.799ZM26.4337 194.207L31.093 196.922V191.185L26.4337 188.47V194.207ZM26.4337 206.248L31.093 203.533V197.795L26.4337 200.51V206.248ZM26.4336 256.812L31.0929 259.527V253.789L26.4336 251.074V256.812ZM365.027 152.151V157.53L369.686 160.246V154.867L365.027 152.151ZM365.027 242.312L369.686 239.597V233.859L365.027 236.575V242.312ZM26.4336 122.232L31.0929 125.254V119.517L26.4336 116.494V122.232ZM26.4336 94.6192L31.0929 92.4164V86.6787L26.4336 88.8816V94.6192Z" fill="white"/>
</g>
</g>
<path fill-rule="evenodd" clip-rule="evenodd" d="M28.5792 95.2074V115.715C28.5792 117.956 27.9019 118.08 27.9532 118.028L26.5311 117.827V93.4932L27.8331 93.1582C27.8331 93.1582 28.5792 93.7665 28.5792 95.2074ZM24.1755 139.19L25.5207 139.377C27.9208 140.194 28.6408 144.076 28.6408 146.405V185.764C28.6408 187.437 28.4888 191.271 25.9927 191.791L24.1755 193.288V139.19ZM25.1734 201.832H23.791V255.62H25.1734C26.9655 255.62 28.4503 252.033 28.4503 250.24V207.16C28.4503 205.418 27.0167 201.832 25.1734 201.832ZM367.726 163.303C367.726 161.374 367.806 157.644 370.69 155.584H372.413V238.678L370.13 237.177C368.142 237.089 367.726 234.456 367.726 232.018V163.303Z" fill="#D0D0D0"/>
<mask id="mask2_4165_15063" style="mask-type:alpha" maskUnits="userSpaceOnUse" x="23" y="93" width="350" height="163">
<path fill-rule="evenodd" clip-rule="evenodd" d="M28.5792 95.2074V115.715C28.5792 117.956 27.9019 118.08 27.9532 118.028L26.5311 117.827V93.4932L27.8331 93.1582C27.8331 93.1582 28.5792 93.7665 28.5792 95.2074ZM24.1755 139.19L25.5207 139.377C27.9208 140.194 28.6408 144.076 28.6408 146.405V185.764C28.6408 187.437 28.4888 191.271 25.9927 191.791L24.1755 193.288V139.19ZM25.1734 201.832H23.791V255.62H25.1734C26.9655 255.62 28.4503 252.033 28.4503 250.24V207.16C28.4503 205.418 27.0167 201.832 25.1734 201.832ZM367.726 163.303C367.726 161.374 367.806 157.644 370.69 155.584H372.413V238.678L370.13 237.177C368.142 237.089 367.726 234.456 367.726 232.018V163.303Z" fill="white"/>
</mask>
<g mask="url(#mask2_4165_15063)">
<g opacity="0.4" filter="url(#filter6_f_4165_15063)">
<rect x="22.9863" y="93" width="3.99696" height="28" fill="black"/>
</g>
<g opacity="0.4" filter="url(#filter7_f_4165_15063)">
<rect x="21.9883" y="138" width="4.99619" height="121" fill="black"/>
</g>
<g opacity="0.4" filter="url(#filter8_f_4165_15063)">
<rect x="369.723" y="138" width="4.99622" height="121" fill="black"/>
</g>
</g>
<path opacity="0.5" fill-rule="evenodd" clip-rule="evenodd" d="M27.4787 203.797C27.4787 203.797 28.4508 205.566 28.4508 207.551L28.5027 248.461C28.5027 250.254 28.2979 253.943 26.5059 253.943H26.6083C28.7075 253.892 28.8099 250.254 28.8099 248.461L28.758 207.591C28.7015 205.782 28.3748 205.03 27.7912 203.837C27.7017 203.654 27.4787 203.797 27.4787 203.797ZM27.253 141.072C28.3385 142.105 28.6354 145.119 28.6354 146.707V185.605C28.6354 187.398 28.4306 191.087 26.6386 191.087H26.741C28.8402 191.035 28.9426 187.398 28.9426 185.605V146.707C28.8948 145.177 28.5579 142.079 27.5251 141.072C27.4457 140.995 27.2898 140.935 27.253 141.072ZM367.982 231.506V163.063C367.982 161.475 368.29 158.35 369.262 157.479C367.982 158.197 367.726 161.475 367.726 163.063V231.506C367.726 233.299 367.778 236.936 369.826 236.987H369.928C368.187 236.987 367.982 233.35 367.982 231.506ZM369.827 157.223C369.622 157.223 369.469 157.326 369.315 157.479C369.469 157.377 369.622 157.326 369.827 157.326V157.223ZM28.0722 118.013C28.1438 118.005 28.1038 118.327 28.1662 118.277C28.8708 117.717 28.9028 115.884 28.9028 115.884V95.4C28.9028 95.4 28.8708 93.9832 28.2703 93.1667C28.1499 93.0031 28.0806 93.3853 27.9501 93.2148C28.5505 94.0152 28.5954 95.4 28.5954 95.4V115.884C28.5954 115.884 28.5745 117.365 28.0722 118.013Z" fill="white"/>
<g style="mix-blend-mode:soft-light" opacity="0.6">
<rect x="-211.836" y="-68" width="819.376" height="820" fill="#E4E4E4"/>
</g>
</g>
<path fill-rule="evenodd" clip-rule="evenodd" d="M313.724 683.142H216.954C215.827 682.425 210.809 682.322 209.785 682.322H186.694C185.618 682.322 180.601 682.425 179.525 683.142H82.7551C50.2424 683.142 29.5059 662.906 29.5059 626.841V255.275C30.1715 253.38 30.5811 251.843 30.5811 250.87V206.095C30.5811 205.122 30.1715 203.636 29.5059 202.407V192.929C30.1715 191.034 30.5811 189.497 30.5811 188.524V143.749C30.5811 142.776 30.1715 141.29 29.5059 140.061V119.518C30.1715 117.827 30.3251 116.444 30.3251 115.522V95.645C30.3251 94.7228 30.1715 93.3397 29.5059 92.2639V58.1964C29.5059 21.3114 49.1671 0 87.9265 0H308.553C347.312 0 366.973 21.3114 366.973 58.1964V155.481C366.308 157.94 365.898 159.477 365.898 160.45V234.169C365.898 235.142 366.308 236.628 366.973 237.857V626.841C366.973 662.957 346.185 683.142 313.724 683.142Z" fill="#D0D0D0"/>
<mask id="mask3_4165_15063" style="mask-type:alpha" maskUnits="userSpaceOnUse" x="29" y="0" width="338" height="684">
<path fill-rule="evenodd" clip-rule="evenodd" d="M313.724 683.142H216.954C215.827 682.425 210.809 682.322 209.785 682.322H186.694C185.618 682.322 180.601 682.425 179.525 683.142H82.7551C50.2424 683.142 29.5059 662.906 29.5059 626.841V255.275C30.1715 253.38 30.5811 251.843 30.5811 250.87V206.095C30.5811 205.122 30.1715 203.636 29.5059 202.407V192.929C30.1715 191.034 30.5811 189.497 30.5811 188.524V143.749C30.5811 142.776 30.1715 141.29 29.5059 140.061V119.518C30.1715 117.827 30.3251 116.444 30.3251 115.522V95.645C30.3251 94.7228 30.1715 93.3397 29.5059 92.2639V58.1964C29.5059 21.3114 49.1671 0 87.9265 0H308.553C347.312 0 366.973 21.3114 366.973 58.1964V155.481C366.308 157.94 365.898 159.477 365.898 160.45V234.169C365.898 235.142 366.308 236.628 366.973 237.857V626.841C366.973 662.957 346.185 683.142 313.724 683.142Z" fill="white"/>
</mask>
<g mask="url(#mask3_4165_15063)">
<g style="mix-blend-mode:hard-light" opacity="0.4">
<rect x="-211.834" y="-68" width="819.376" height="820" fill="#E4E4E4"/>
</g>
<g opacity="0.49983" filter="url(#filter9_f_4165_15063)">
<path d="M321.865 -2.76562H75.5873C48.2971 -2.76562 26.127 19.3654 26.127 46.7218V630.837C26.127 654.505 42.7674 675.663 64.9887 680.837C44.6106 675.151 29.7622 657.272 29.7622 632.887V56.0455C29.7622 19.4679 51.9324 -2.04842 79.2738 -2.04842H317.001C344.343 -2.04842 366.513 18.9556 366.513 54.15V632.938C366.513 659.423 350.487 676.893 328.931 681.554C352.893 677.866 371.274 655.786 371.274 630.837V46.7218C371.326 19.3654 349.207 -2.76562 321.865 -2.76562Z" fill="black"/>
</g>
<g filter="url(#filter10_f_4165_15063)">
<path fill-rule="evenodd" clip-rule="evenodd" d="M358.781 55.5844C358.781 26.6399 342.396 8.2998 310.191 8.2998H86.2365C54.0309 8.2998 37.6465 26.5886 37.6465 55.5844L37.6465 630.94C37.6465 667.005 60.3286 679.556 85.7244 679.556H310.703C336.098 679.556 358.781 667.005 358.781 630.94V55.5844Z" fill="#EDEDED"/>
</g>
<g filter="url(#filter11_f_4165_15063)">
<path fill-rule="evenodd" clip-rule="evenodd" d="M358.781 55.5844C358.781 26.6399 342.396 8.2998 310.191 8.2998H86.2365C54.0309 8.2998 37.6465 26.5886 37.6465 55.5844V626.329C37.6465 662.395 60.3286 674.946 85.7244 674.946H310.703C336.098 674.946 358.781 662.395 358.781 626.329V55.5844Z" fill="white"/>
</g>
<g filter="url(#filter12_f_4165_15063)">
<path fill-rule="evenodd" clip-rule="evenodd" d="M336.354 672.025C347.516 664.29 354.684 651.738 354.684 635.857V53.6885C354.684 29.6108 344.803 15.2154 330.159 8.45312C348.95 15.4203 362.313 33.5554 362.313 54.918V626.995C362.313 645.898 351.817 663.163 336.354 672.025ZM40.923 55.6872V635.858C40.923 648.358 45.3263 658.706 52.5969 666.34C41.5887 656.76 34.1133 642.415 34.1133 626.995V54.9187C34.1133 35.5029 45.736 18.6997 61.8643 10.6055C49.2176 18.2899 40.923 32.7365 40.923 55.6872Z" fill="white"/>
</g>
<g filter="url(#filter13_f_4165_15063)">
<path fill-rule="evenodd" clip-rule="evenodd" d="M336.354 672.025C347.516 664.29 354.684 651.738 354.684 635.857V53.6885C354.684 29.6108 344.803 15.2154 330.159 8.45312C348.95 15.4203 362.313 33.5554 362.313 54.918V626.995C362.313 645.898 351.817 663.163 336.354 672.025ZM40.923 55.6872V635.858C40.923 648.358 45.3263 658.706 52.5969 666.34C41.5887 656.76 34.1133 642.415 34.1133 626.995V54.9187C34.1133 35.5029 45.736 18.6997 61.8643 10.6055C49.2176 18.2899 40.923 32.7365 40.923 55.6872Z" fill="white"/>
</g>
<g filter="url(#filter14_f_4165_15063)">
<path fill-rule="evenodd" clip-rule="evenodd" d="M312.648 13.8832H83.7786C57.3075 13.8832 41.2815 23.2582 36.0078 43.1351C38.3631 17.7254 54.7987 1.99805 84.905 1.99805H311.522C341.628 1.99805 358.064 17.7254 360.419 43.1351C355.145 23.3094 339.119 13.8832 312.648 13.8832Z" fill="white"/>
</g>
<g opacity="0.2" filter="url(#filter15_f_4165_15063)">
<path d="M74.1854 682.528H322.193C346.124 682.528 366.207 666.8 371.953 645.54V651.38C371.953 678.685 349.181 700.868 321.033 700.868H75.3451C47.2499 700.868 24.4258 678.737 24.4258 651.38V645.54C30.224 666.8 50.3071 682.528 74.1854 682.528Z" fill="black"/>
</g>
<g opacity="0.1" filter="url(#filter16_f_4165_15063)">
<path fill-rule="evenodd" clip-rule="evenodd" d="M74.1884 682.373H322.24C339.54 682.373 354.854 674.176 364.157 661.522C355.533 676.738 339.017 686.983 320.045 686.983H76.3835C57.4112 686.983 40.843 676.686 32.2715 661.522C41.5747 674.176 56.8885 682.373 74.1884 682.373Z" fill="#808080"/>
</g>
<g opacity="0.2" filter="url(#filter17_f_4165_15063)">
<path fill-rule="evenodd" clip-rule="evenodd" d="M78.4551 683.551H317.974C342.705 683.551 363.185 665.519 366.974 641.953V650.355C366.974 677.66 344.855 699.842 317.514 699.842H78.8647C51.5744 699.842 29.4043 677.711 29.4043 650.355V641.953C33.1932 665.519 53.7249 683.551 78.4551 683.551Z" fill="black"/>
</g>
<g opacity="0.9" filter="url(#filter18_f_4165_15063)">
<path fill-rule="evenodd" clip-rule="evenodd" d="M327.957 682.169C350.733 677.172 366.153 658.858 366.153 626.519V57.5548C366.153 14.138 336.908 0.461816 310.087 0.461816H85.6384C56.5177 0.461816 30.0678 15.8668 30.0678 58.1311V624.214C30.0678 659.69 48.2615 677.813 67.0351 681.708C24.4529 693.053 23.4629 655.171 23.4629 630.735V46.7218C23.4629 19.4166 48.3467 -2.76562 75.637 -2.76562H321.915C349.205 -2.76562 374.089 19.3654 374.089 46.7218V630.837C374.038 656.093 363.533 687.546 327.957 682.169Z" fill="white"/>
</g>
</g>
<mask id="mask4_4165_15063" style="mask-type:alpha" maskUnits="userSpaceOnUse" x="29" y="0" width="338" height="684">
<path fill-rule="evenodd" clip-rule="evenodd" d="M360.952 626.327C360.952 643.77 355.817 657.058 345.689 665.821C337.128 673.23 325.031 677.146 310.706 677.146H85.6939C71.3699 677.146 59.273 673.23 50.7112 665.821C40.5836 657.058 35.4486 643.77 35.4486 626.327V55.565C35.4486 40.4759 39.8934 28.0154 48.3022 19.5313C57.1277 10.6267 69.8922 6.11133 86.2402 6.11133H310.161C326.508 6.11133 339.273 10.6267 348.098 19.5313C356.507 28.0154 360.952 40.4759 360.952 55.565V626.327ZM87.8786 0.100586C49.1023 0.100586 29.5137 21.4119 29.5137 58.297V626.873C29.5137 662.939 50.1945 683.157 82.6904 683.157H313.71C346.206 683.157 366.96 662.939 366.96 626.873V58.297C366.96 21.4119 347.298 0.100586 308.522 0.100586H87.8786Z" fill="white"/>
</mask>
<g mask="url(#mask4_4165_15063)">
<path fill-rule="evenodd" clip-rule="evenodd" d="M28.8906 70.3367V65.6748H367.484V70.3367H28.8906ZM367.484 617.876H28.8906V613.214H367.484V617.876Z" fill="#989899" fill-opacity="0.6"/>
<mask id="mask5_4165_15063" style="mask-type:alpha" maskUnits="userSpaceOnUse" x="28" y="65" width="340" height="553">
<path fill-rule="evenodd" clip-rule="evenodd" d="M28.8906 70.3367V65.6748H367.484V70.3367H28.8906ZM367.484 617.876H28.8906V613.214H367.484V617.876Z" fill="white"/>
</mask>
<g mask="url(#mask5_4165_15063)">
<g opacity="0.8" filter="url(#filter19_f_4165_15063)">
<path fill-rule="evenodd" clip-rule="evenodd" d="M355.502 74.8958H362.773V61.0127H355.502V74.8958ZM366.664 61.0635V74.9466H373.883V61.0635H366.664ZM355.502 622.435H362.773V608.552H355.502V622.435ZM366.664 622.435H373.883V608.552H366.664V622.435ZM22.9008 74.8958H30.1202V61.0127H22.8496V74.8958H22.9008ZM33.4997 74.8958H40.7703V61.0127H33.4997V74.8958ZM22.9008 622.435H30.1202V608.552H22.8496V622.435H22.9008ZM33.4997 622.435H40.7703V608.552H33.4997V622.435Z" fill="white"/>
</g>
</g>
</g>
<path fill-rule="evenodd" clip-rule="evenodd" d="M347.48 19.1504C338.572 10.1377 325.671 5.58008 309.135 5.58008H85.2605C68.7757 5.58008 55.8747 10.1377 46.9156 19.1504C38.4172 27.7535 33.9121 40.2997 33.9121 55.5599V626.078C33.9121 643.694 39.134 657.111 49.3729 665.97C58.0248 673.446 70.2604 677.441 84.6973 677.441H309.698C324.135 677.441 336.371 673.497 345.023 665.97C355.262 657.111 360.484 643.694 360.484 626.078V55.5599C360.484 40.2997 355.978 27.7023 347.48 19.1504ZM85.2605 8.29415H309.135C341.388 8.29415 357.77 26.5757 357.77 55.56V626.078C357.77 662.129 335.091 674.675 309.698 674.675H84.7485C59.3559 674.675 36.6766 662.129 36.6766 626.078V55.56C36.6766 26.5757 53.059 8.29415 85.2605 8.29415ZM342.873 663.512C352.395 655.267 357.207 642.67 357.207 626.078V55.56C357.207 41.0166 353.112 29.5458 345.125 21.4548C336.832 13.1078 324.75 8.85745 309.135 8.85745H85.2605C69.6973 8.85745 57.5641 13.1078 49.2705 21.4548C41.233 29.5458 37.1886 41.0166 37.1886 55.56V626.078C37.1886 642.721 42.0009 655.318 51.5231 663.512C59.5607 670.476 71.0283 674.163 84.6973 674.163H309.698C323.316 674.163 334.835 670.476 342.873 663.512ZM344.664 665.56C354.801 656.803 359.92 643.489 359.92 626.078V55.56C359.92 40.5045 355.466 28.0608 347.071 19.5601C338.265 10.6498 325.466 6.14338 309.135 6.14338H85.2605C68.9293 6.14338 56.1306 10.6498 47.3251 19.5601C38.9292 28.0096 34.4753 40.4533 34.4753 55.56V626.078C34.4753 643.54 39.5947 656.803 49.7313 665.56C58.2808 672.985 70.3628 676.877 84.6973 676.877H309.698C324.033 676.877 336.115 672.985 344.664 665.56Z" fill="#F8F8F8"/>
<path fill-rule="evenodd" clip-rule="evenodd" d="M342.873 663.512C352.395 655.267 357.207 642.67 357.207 626.078V55.56C357.207 41.0166 353.112 29.5458 345.125 21.4548C336.832 13.1078 324.75 8.85745 309.135 8.85745H85.2605C69.6973 8.85745 57.5641 13.1078 49.2705 21.4548C41.233 29.5458 37.1886 41.0166 37.1886 55.56V626.078C37.1886 642.721 42.0009 655.318 51.5231 663.512C59.5607 670.476 71.0283 674.163 84.6973 674.163H309.698C323.316 674.163 334.835 670.476 342.873 663.512ZM346.932 54.2076V54.2099V630.209C346.932 641.404 342.91 649.679 336.427 655.153C329.958 660.617 321.089 663.239 311.454 663.239H85.3776C75.7175 663.239 66.8479 660.617 60.3841 655.153C53.9078 649.679 49.8996 641.404 49.8996 630.209V54.2099C49.8996 43.0503 53.1299 34.4411 59.0832 28.6233C65.0346 22.8075 73.6382 19.8488 84.2512 19.8488H111.077C113.868 19.8488 116.146 22.1264 116.146 24.9185V26.8644C116.146 36.1064 123.647 43.6097 132.886 43.6097H263.843C273.082 43.6097 280.583 36.1064 280.583 26.8644V24.9185C280.583 22.1264 282.86 19.8488 285.651 19.8488H312.478C323.091 19.8488 331.694 22.8076 337.658 28.6229C343.624 34.44 346.88 43.0484 346.932 54.2076Z" fill="#F8F8F8"/>
<path d="M216.087 24.1289H180.297C178.71 24.1289 177.43 25.4096 177.43 26.9977C177.43 28.5859 178.71 29.8666 180.297 29.8666H216.087C217.674 29.8666 218.954 28.5859 218.954 26.9977C218.954 25.4096 217.674 24.1289 216.087 24.1289Z" fill="#DDDDDD"/>
<mask id="mask6_4165_15063" style="mask-type:alpha" maskUnits="userSpaceOnUse" x="177" y="24" width="42" height="6">
<path d="M216.087 24.1289H180.297C178.71 24.1289 177.43 25.4096 177.43 26.9977C177.43 28.5859 178.71 29.8666 180.297 29.8666H216.087C217.674 29.8666 218.954 28.5859 218.954 26.9977C218.954 25.4096 217.674 24.1289 216.087 24.1289Z" fill="white"/>
</mask>
<g mask="url(#mask6_4165_15063)">
<path opacity="0.503748" fill-rule="evenodd" clip-rule="evenodd" d="M172.945 30.2979L178.903 23.5479L179.167 23.8465L173.209 30.5966L172.945 30.2979ZM180.38 23.5479L174.423 30.2979L174.686 30.5966L180.644 23.8465L180.38 23.5479ZM175.845 30.2979L181.803 23.5479L182.067 23.8465L176.109 30.5966L175.845 30.2979ZM183.228 23.5479L177.27 30.2979L177.534 30.5966L183.492 23.8465L183.228 23.5479ZM178.691 30.2979L184.649 23.5479L184.912 23.8465L178.955 30.5966L178.691 30.2979ZM186.073 23.5479L180.116 30.2979L180.379 30.5966L186.337 23.8465L186.073 23.5479ZM181.591 30.2979L187.549 23.5479L187.812 23.8465L181.855 30.5966L181.591 30.2979ZM188.974 23.5479L183.016 30.2979L183.279 30.5966L189.237 23.8465L188.974 23.5479ZM184.439 30.2979L190.396 23.5479L190.66 23.8465L184.702 30.5966L184.439 30.2979ZM191.823 23.5479L185.865 30.2979L186.129 30.5966L192.087 23.8465L191.823 23.5479ZM187.339 30.2979L193.296 23.5479L193.56 23.8465L187.602 30.5966L187.339 30.2979ZM194.721 23.5479L188.763 30.2979L189.027 30.5966L194.985 23.8465L194.721 23.5479ZM190.184 30.2979L196.142 23.5479L196.406 23.8465L190.448 30.5966L190.184 30.2979ZM197.567 23.5479L191.609 30.2979L191.872 30.5966L197.83 23.8465L197.567 23.5479ZM193.034 30.2979L198.991 23.5479L199.255 23.8465L193.297 30.5966L193.034 30.2979ZM200.469 23.5479L194.511 30.2979L194.775 30.5966L200.732 23.8465L200.469 23.5479ZM195.934 30.2979L201.891 23.5479L202.155 23.8465L196.197 30.5966L195.934 30.2979ZM203.312 23.5479L197.354 30.2979L197.618 30.5966L203.576 23.8465L203.312 23.5479ZM198.779 30.2979L204.737 23.5479L205.001 23.8465L199.043 30.5966L198.779 30.2979ZM206.212 23.5479L200.255 30.2979L200.518 30.5966L206.476 23.8465L206.212 23.5479ZM201.679 30.2979L207.637 23.5479L207.901 23.8465L201.943 30.5966L201.679 30.2979ZM209.062 23.5479L203.104 30.2979L203.368 30.5966L209.325 23.8465L209.062 23.5479ZM204.527 30.2979L210.485 23.5479L210.748 23.8465L204.79 30.5966L204.527 30.2979ZM211.909 23.5479L205.951 30.2979L206.215 30.5966L212.173 23.8465L211.909 23.5479ZM207.425 30.2979L213.383 23.5479L213.646 23.8465L207.689 30.5966L207.425 30.2979ZM214.807 23.5479L208.85 30.2979L209.113 30.5966L215.071 23.8465L214.807 23.5479ZM210.274 30.2979L216.232 23.5479L216.496 23.8465L210.538 30.5966L210.274 30.2979ZM217.655 23.5479L211.697 30.2979L211.961 30.5966L217.918 23.8465L217.655 23.5479ZM213.174 30.2979L219.132 23.5479L219.396 23.8465L213.438 30.5966L213.174 30.2979ZM220.555 23.5479L214.597 30.2979L214.861 30.5966L220.819 23.8465L220.555 23.5479ZM221.982 23.5479L216.024 30.2979L216.287 30.5966L222.245 23.8465L221.982 23.5479Z" fill="white"/>
<path opacity="0.6" fill-rule="evenodd" clip-rule="evenodd" d="M178.903 30.5369L172.945 23.7868L173.209 23.5479L179.167 30.2382L178.903 30.5369ZM174.368 23.7868L180.326 30.5369L180.589 30.2382L174.632 23.5479L174.368 23.7868ZM181.803 30.5369L175.845 23.7868L176.056 23.5479L182.067 30.2382L181.803 30.5369ZM177.27 23.7868L183.228 30.5369L183.492 30.2382L177.534 23.5479L177.27 23.7868ZM184.649 30.5369L178.691 23.7868L178.955 23.5479L184.912 30.2382L184.649 30.5369ZM180.116 23.7868L186.073 30.5369L186.337 30.2382L180.379 23.5479L180.116 23.7868ZM187.549 30.5369L181.591 23.7868L181.802 23.5479L187.812 30.2382L187.549 30.5369ZM183.016 23.7868L188.974 30.5369L189.237 30.2382L183.279 23.5479L183.016 23.7868ZM190.396 30.5369L184.439 23.7868L184.702 23.5479L190.66 30.2382L190.396 30.5369ZM185.865 23.7868L191.823 30.5369L192.087 30.2382L186.129 23.5479L185.865 23.7868ZM193.244 30.5369L187.286 23.7868L187.55 23.5479L193.507 30.2382L193.244 30.5369ZM188.763 23.7868L194.721 30.5369L194.985 30.2382L188.974 23.5479L188.763 23.7868ZM196.142 30.5369L190.184 23.7868L190.448 23.5479L196.406 30.2382L196.142 30.5369ZM191.609 23.7868L197.567 30.5369L197.83 30.2382L191.872 23.5479L191.609 23.7868ZM198.991 30.5369L193.034 23.7868L193.297 23.5479L199.255 30.2382L198.991 30.5369ZM194.511 23.7868L200.469 30.5369L200.732 30.2382L194.722 23.5479L194.511 23.7868ZM201.891 30.5369L195.934 23.7868L196.145 23.5479L202.155 30.2382L201.891 30.5369ZM197.354 23.7868L203.312 30.5369L203.576 30.2382L197.618 23.5479L197.354 23.7868ZM204.737 30.5369L198.779 23.7868L199.043 23.5479L205.001 30.2382L204.737 30.5369ZM200.204 23.7868L206.162 30.5369L206.425 30.2382L200.467 23.5479L200.204 23.7868ZM207.637 30.5369L201.679 23.7868L201.89 23.5479L207.901 30.2382L207.637 30.5369ZM203.104 23.7868L209.062 30.5369L209.325 30.2382L203.368 23.5479L203.104 23.7868ZM210.485 30.5369L204.527 23.7868L204.79 23.5479L210.748 30.2382L210.485 30.5369ZM205.951 23.7868L211.909 30.5369L212.173 30.2382L206.215 23.5479L205.951 23.7868ZM213.33 30.5369L207.372 23.7868L207.636 23.5479L213.594 30.2382L213.33 30.5369ZM208.85 23.7868L214.807 30.5369L215.071 30.2382L209.06 23.5479L208.85 23.7868ZM216.232 30.5369L210.274 23.7868L210.538 23.5479L216.496 30.2382L216.232 30.5369ZM211.697 23.7868L217.655 30.5369L217.918 30.2382L211.961 23.5479L211.697 23.7868ZM219.08 30.5369L213.122 23.7868L213.385 23.5479L219.343 30.2382L219.08 30.5369ZM214.597 23.7868L220.555 30.5369L220.819 30.2382L214.808 23.5479L214.597 23.7868ZM216.287 23.5479L216.024 23.8465L221.982 30.5966L222.245 30.2979L216.287 23.5479Z" fill="white"/>
</g>
<mask id="mask7_4165_15063" style="mask-type:alpha" maskUnits="userSpaceOnUse" x="176" y="23" width="44" height="8">
<path fill-rule="evenodd" clip-rule="evenodd" d="M180.298 23.6172H216.087C217.982 23.6172 219.518 25.1541 219.518 27.0495C219.518 28.945 217.982 30.4819 216.087 30.4819H180.298C178.403 30.4819 176.867 28.945 176.867 27.0495C176.867 25.1541 178.403 23.6172 180.298 23.6172ZM180.298 29.8666H216.088C217.675 29.8666 218.955 28.5859 218.955 26.9977C218.955 25.4096 217.675 24.1289 216.088 24.1289H180.298C178.711 24.1289 177.431 25.4096 177.431 26.9977C177.431 28.5859 178.711 29.8666 180.298 29.8666Z" fill="white"/>
</mask>
<g mask="url(#mask7_4165_15063)">
<g opacity="0.799366" filter="url(#filter20_f_4165_15063)">
<path fill-rule="evenodd" clip-rule="evenodd" d="M176.15 27.3057H219.876V33.5044H176.15V27.3057Z" fill="white"/>
</g>
<g filter="url(#filter21_f_4165_15063)">
<path d="M216.089 24.1299H180.299C178.507 24.1299 177.022 25.5131 176.92 27.2549C176.92 27.1525 176.92 27.05 176.92 26.9988C176.92 25.1033 178.456 23.5664 180.35 23.5664H216.14C218.035 23.5664 219.571 25.1033 219.571 26.9988C219.571 27.1012 219.571 27.2037 219.571 27.2549C219.366 25.5131 217.881 24.1299 216.089 24.1299Z" fill="black"/>
</g>
<g style="mix-blend-mode:soft-light" opacity="0.15">
<rect x="-263.795" y="-67" width="819.376" height="820" fill="#E4E4E4"/>
</g>
</g>
<path fill-rule="evenodd" clip-rule="evenodd" d="M180.296 30.43H216.085C217.929 30.43 219.413 28.9956 219.516 27.1514C219.516 27.2026 219.516 27.2538 219.516 27.3051C219.516 29.2005 217.98 30.7374 216.085 30.7374H180.296C178.401 30.7374 176.865 29.2005 176.865 27.3051C176.865 27.2538 176.865 27.2026 176.865 27.1514C176.968 28.9956 178.452 30.43 180.296 30.43Z" fill="white"/>
<path opacity="0.9" fill-rule="evenodd" clip-rule="evenodd" d="M216.085 23.6169H180.296C178.452 23.6169 176.968 25.0514 176.865 26.8956C176.865 26.8444 176.865 26.7932 176.865 26.7419C176.865 24.8464 178.401 23.3096 180.296 23.3096H216.085C217.98 23.3096 219.516 24.8464 219.516 26.7419C219.516 26.7932 219.516 26.8444 219.516 26.8956C219.413 25.0514 217.929 23.6169 216.085 23.6169Z" fill="white"/>
<g opacity="0.5" filter="url(#filter22_i_4165_15063)">
<path d="M216.089 24.1289H180.299C178.712 24.1289 177.432 25.4096 177.432 26.9977C177.432 28.5859 178.712 29.8666 180.299 29.8666H216.089C217.676 29.8666 218.956 28.5859 218.956 26.9977C218.956 25.4096 217.676 24.1289 216.089 24.1289Z" fill="black" fill-opacity="0.01"/>
</g>
<mask id="mask8_4165_15063" style="mask-type:alpha" maskUnits="userSpaceOnUse" x="177" y="24" width="42" height="6">
<path d="M216.089 24.1289H180.299C178.712 24.1289 177.432 25.4096 177.432 26.9977C177.432 28.5859 178.712 29.8666 180.299 29.8666H216.089C217.676 29.8666 218.956 28.5859 218.956 26.9977C218.956 25.4096 217.676 24.1289 216.089 24.1289Z" fill="white"/>
</mask>
<g mask="url(#mask8_4165_15063)">
<g style="mix-blend-mode:soft-light" opacity="0.03">
<rect x="-263.795" y="-68" width="819.376" height="820" fill="#E4E4E4"/>
</g>
</g>
<path d="M239.688 27.4095C239.688 30.2783 237.384 32.5837 234.517 32.5837C231.65 32.5837 229.346 30.2783 229.346 27.4095C229.346 24.5407 231.65 22.2354 234.517 22.2354C237.384 22.2354 239.688 24.5407 239.688 27.4095Z" fill="#E2E2E2"/>
<mask id="mask9_4165_15063" style="mask-type:alpha" maskUnits="userSpaceOnUse" x="229" y="22" width="11" height="11">
<path d="M239.688 27.4095C239.688 30.2783 237.384 32.5837 234.517 32.5837C231.65 32.5837 229.346 30.2783 229.346 27.4095C229.346 24.5407 231.65 22.2354 234.517 22.2354C237.384 22.2354 239.688 24.5407 239.688 27.4095Z" fill="white"/>
</mask>
<g mask="url(#mask9_4165_15063)">
<g filter="url(#filter23_f_4165_15063)">
<path d="M239.841 32.6862C239.841 35.6575 237.435 38.1165 234.414 38.1165C231.444 38.1165 228.986 35.7087 228.986 32.6862C228.986 29.7149 231.393 27.2559 234.414 27.2559C237.435 27.2559 239.841 29.7149 239.841 32.6862Z" fill="white"/>
</g>
<g opacity="0.1" filter="url(#filter24_f_4165_15063)">
<path d="M239.841 22.8502C239.841 25.8215 237.435 28.2805 234.414 28.2805C231.444 28.2805 228.986 25.8727 228.986 22.8502C228.986 19.8789 231.393 17.4199 234.414 17.4199C237.435 17.4199 239.841 19.8789 239.841 22.8502Z" fill="black"/>
</g>
<g style="mix-blend-mode:soft-light" opacity="0.297101">
<rect x="-211.834" y="-68" width="819.376" height="820" fill="#E4E4E4"/>
</g>
</g>
<g filter="url(#filter25_i_4165_15063)">
<path d="M237.792 27.4095C237.792 29.2026 236.307 30.6882 234.515 30.6882C232.723 30.6882 231.238 29.2026 231.238 27.4095C231.238 25.6165 232.723 24.1309 234.515 24.1309C236.307 24.1309 237.792 25.6165 237.792 27.4095Z" fill="#E0E0E0"/>
</g>
<mask id="mask10_4165_15063" style="mask-type:alpha" maskUnits="userSpaceOnUse" x="231" y="24" width="7" height="7">
<path d="M237.792 27.4095C237.792 29.2026 236.307 30.6882 234.515 30.6882C232.723 30.6882 231.238 29.2026 231.238 27.4095C231.238 25.6165 232.723 24.1309 234.515 24.1309C236.307 24.1309 237.792 25.6165 237.792 27.4095Z" fill="white"/>
</mask>
<g mask="url(#mask10_4165_15063)">
<g filter="url(#filter26_f_4165_15063)">
<path fill-rule="evenodd" clip-rule="evenodd" d="M232.057 28.0752C231.699 28.6387 233.081 30.1244 234.413 30.1244C235.693 30.1244 237.331 28.7412 237.075 28.1264C236.614 28.3826 235.59 28.8949 234.464 28.8949C233.338 28.8949 232.416 28.4338 232.057 28.0752Z" fill="white"/>
</g>
<g filter="url(#filter27_f_4165_15063)">
<path fill-rule="evenodd" clip-rule="evenodd" d="M233.95 25.667C234.667 25.667 235.23 26.2305 235.23 26.9477C235.23 27.6649 234.667 28.2285 233.95 28.2285C233.233 28.2285 232.67 27.6649 232.67 26.9477C232.67 26.2305 233.233 25.667 233.95 25.667Z" fill="white"/>
</g>
<g style="mix-blend-mode:soft-light" opacity="0.297101">
<rect x="-209.836" y="-66" width="819.376" height="820" fill="#E4E4E4"/>
</g>
</g>
<path d="M346.646 54.2332V54.2308C346.594 43.0672 343.338 34.4554 337.371 28.636C331.406 22.8184 322.802 19.8584 312.187 19.8584H285.358C282.566 19.8584 280.289 22.1369 280.289 24.9301V26.8768C280.289 36.1225 272.787 43.6288 263.546 43.6288H132.573C123.333 43.6288 115.831 36.1225 115.831 26.8768V24.9301C115.831 22.1369 113.553 19.8584 110.762 19.8584H83.9322C73.3178 19.8584 64.7131 22.8183 58.761 28.6364C52.8069 34.4565 49.5762 43.0691 49.5762 54.2332V630.461C49.5762 641.66 53.5849 649.939 60.062 655.415C66.5266 660.881 75.3974 663.504 85.0587 663.504H311.163C320.799 663.504 329.67 660.881 336.14 655.415C342.624 649.939 346.646 641.66 346.646 630.461V54.2332Z" stroke="black" stroke-opacity="0.1" stroke-width="1.39667"/>
<defs>
<filter id="filter0_f_4165_15063" x="28.4107" y="674.375" width="336.038" height="15.2832" filterUnits="userSpaceOnUse" color-interpolation-filters="sRGB">
<feFlood flood-opacity="0" result="BackgroundImageFix"/>
<feBlend mode="normal" in="SourceGraphic" in2="BackgroundImageFix" result="shape"/>
<feGaussianBlur stdDeviation="2.8474" result="effect1_foregroundBlur_4165_15063"/>
</filter>
<filter id="filter1_f_4165_15063" x="0.305195" y="673.349" width="392.497" height="17.5371" filterUnits="userSpaceOnUse" color-interpolation-filters="sRGB">
<feFlood flood-opacity="0" result="BackgroundImageFix"/>
<feBlend mode="normal" in="SourceGraphic" in2="BackgroundImageFix" result="shape"/>
<feGaussianBlur stdDeviation="2.8474" result="effect1_foregroundBlur_4165_15063"/>
</filter>
<filter id="filter2_f_4165_15063" x="15.0459" y="76.9805" width="366.031" height="193.526" filterUnits="userSpaceOnUse" color-interpolation-filters="sRGB">
<feFlood flood-opacity="0" result="BackgroundImageFix"/>
<feBlend mode="normal" in="SourceGraphic" in2="BackgroundImageFix" result="shape"/>
<feGaussianBlur stdDeviation="5.6948" result="effect1_foregroundBlur_4165_15063"/>
</filter>
<filter id="filter3_f_4165_15063" x="20.7407" y="80.4722" width="354.388" height="185.671" filterUnits="userSpaceOnUse" color-interpolation-filters="sRGB">
<feFlood flood-opacity="0" result="BackgroundImageFix"/>
<feBlend mode="normal" in="SourceGraphic" in2="BackgroundImageFix" result="shape"/>
<feGaussianBlur stdDeviation="2.8474" result="effect1_foregroundBlur_4165_15063"/>
</filter>
<filter id="filter4_f_4165_15063" x="22.6371" y="82.4749" width="350.845" height="180.441" filterUnits="userSpaceOnUse" color-interpolation-filters="sRGB">
<feFlood flood-opacity="0" result="BackgroundImageFix"/>
<feBlend mode="normal" in="SourceGraphic" in2="BackgroundImageFix" result="shape"/>
<feGaussianBlur stdDeviation="1.89827" result="effect1_foregroundBlur_4165_15063"/>
</filter>
<filter id="filter5_f_4165_15063" x="22.6371" y="82.8822" width="350.845" height="180.441" filterUnits="userSpaceOnUse" color-interpolation-filters="sRGB">
<feFlood flood-opacity="0" result="BackgroundImageFix"/>
<feBlend mode="normal" in="SourceGraphic" in2="BackgroundImageFix" result="shape"/>
<feGaussianBlur stdDeviation="1.89827" result="effect1_foregroundBlur_4165_15063"/>
</filter>
<filter id="filter6_f_4165_15063" x="19.1898" y="89.2035" width="11.5892" height="35.5931" filterUnits="userSpaceOnUse" color-interpolation-filters="sRGB">
<feFlood flood-opacity="0" result="BackgroundImageFix"/>
<feBlend mode="normal" in="SourceGraphic" in2="BackgroundImageFix" result="shape"/>
<feGaussianBlur stdDeviation="1.89827" result="effect1_foregroundBlur_4165_15063"/>
</filter>
<filter id="filter7_f_4165_15063" x="18.1917" y="134.203" width="12.5892" height="128.593" filterUnits="userSpaceOnUse" color-interpolation-filters="sRGB">
<feFlood flood-opacity="0" result="BackgroundImageFix"/>
<feBlend mode="normal" in="SourceGraphic" in2="BackgroundImageFix" result="shape"/>
<feGaussianBlur stdDeviation="1.89827" result="effect1_foregroundBlur_4165_15063"/>
</filter>
<filter id="filter8_f_4165_15063" x="365.926" y="134.203" width="12.5892" height="128.593" filterUnits="userSpaceOnUse" color-interpolation-filters="sRGB">
<feFlood flood-opacity="0" result="BackgroundImageFix"/>
<feBlend mode="normal" in="SourceGraphic" in2="BackgroundImageFix" result="shape"/>
<feGaussianBlur stdDeviation="1.89827" result="effect1_foregroundBlur_4165_15063"/>
</filter>
<filter id="filter9_f_4165_15063" x="14.7373" y="-14.1552" width="367.928" height="707.099" filterUnits="userSpaceOnUse" color-interpolation-filters="sRGB">
<feFlood flood-opacity="0" result="BackgroundImageFix"/>
<feBlend mode="normal" in="SourceGraphic" in2="BackgroundImageFix" result="shape"/>
<feGaussianBlur stdDeviation="5.6948" result="effect1_foregroundBlur_4165_15063"/>
</filter>
<filter id="filter10_f_4165_15063" x="7.2742" y="-22.0725" width="381.879" height="732.001" filterUnits="userSpaceOnUse" color-interpolation-filters="sRGB">
<feFlood flood-opacity="0" result="BackgroundImageFix"/>
<feBlend mode="normal" in="SourceGraphic" in2="BackgroundImageFix" result="shape"/>
<feGaussianBlur stdDeviation="15.1861" result="effect1_foregroundBlur_4165_15063"/>
</filter>
<filter id="filter11_f_4165_15063" x="7.2742" y="-22.0725" width="381.879" height="727.391" filterUnits="userSpaceOnUse" color-interpolation-filters="sRGB">
<feFlood flood-opacity="0" result="BackgroundImageFix"/>
<feBlend mode="normal" in="SourceGraphic" in2="BackgroundImageFix" result="shape"/>
<feGaussianBlur stdDeviation="15.1861" result="effect1_foregroundBlur_4165_15063"/>
</filter>
<filter id="filter12_f_4165_15063" x="18.9271" y="-6.73302" width="358.572" height="693.945" filterUnits="userSpaceOnUse" color-interpolation-filters="sRGB">
<feFlood flood-opacity="0" result="BackgroundImageFix"/>
<feBlend mode="normal" in="SourceGraphic" in2="BackgroundImageFix" result="shape"/>
<feGaussianBlur stdDeviation="7.59307" result="effect1_foregroundBlur_4165_15063"/>
</filter>
<filter id="filter13_f_4165_15063" x="18.9271" y="-6.73302" width="358.572" height="693.945" filterUnits="userSpaceOnUse" color-interpolation-filters="sRGB">
<feFlood flood-opacity="0" result="BackgroundImageFix"/>
<feBlend mode="normal" in="SourceGraphic" in2="BackgroundImageFix" result="shape"/>
<feGaussianBlur stdDeviation="7.59307" result="effect1_foregroundBlur_4165_15063"/>
</filter>
<filter id="filter14_f_4165_15063" x="13.2286" y="-20.7812" width="369.969" height="86.6956" filterUnits="userSpaceOnUse" color-interpolation-filters="sRGB">
<feFlood flood-opacity="0" result="BackgroundImageFix"/>
<feBlend mode="normal" in="SourceGraphic" in2="BackgroundImageFix" result="shape"/>
<feGaussianBlur stdDeviation="11.3896" result="effect1_foregroundBlur_4165_15063"/>
</filter>
<filter id="filter15_f_4165_15063" x="13.0362" y="634.15" width="370.307" height="78.1069" filterUnits="userSpaceOnUse" color-interpolation-filters="sRGB">
<feFlood flood-opacity="0" result="BackgroundImageFix"/>
<feBlend mode="normal" in="SourceGraphic" in2="BackgroundImageFix" result="shape"/>
<feGaussianBlur stdDeviation="5.6948" result="effect1_foregroundBlur_4165_15063"/>
</filter>
<filter id="filter16_f_4165_15063" x="20.8819" y="650.133" width="354.664" height="48.2402" filterUnits="userSpaceOnUse" color-interpolation-filters="sRGB">
<feFlood flood-opacity="0" result="BackgroundImageFix"/>
<feBlend mode="normal" in="SourceGraphic" in2="BackgroundImageFix" result="shape"/>
<feGaussianBlur stdDeviation="5.6948" result="effect1_foregroundBlur_4165_15063"/>
</filter>
<filter id="filter17_f_4165_15063" x="21.8112" y="634.36" width="352.756" height="73.0753" filterUnits="userSpaceOnUse" color-interpolation-filters="sRGB">
<feFlood flood-opacity="0" result="BackgroundImageFix"/>
<feBlend mode="normal" in="SourceGraphic" in2="BackgroundImageFix" result="shape"/>
<feGaussianBlur stdDeviation="3.79654" result="effect1_foregroundBlur_4165_15063"/>
</filter>
<filter id="filter18_f_4165_15063" x="17.7681" y="-8.46043" width="362.017" height="697.933" filterUnits="userSpaceOnUse" color-interpolation-filters="sRGB">
<feFlood flood-opacity="0" result="BackgroundImageFix"/>
<feBlend mode="normal" in="SourceGraphic" in2="BackgroundImageFix" result="shape"/>
<feGaussianBlur stdDeviation="2.8474" result="effect1_foregroundBlur_4165_15063"/>
</filter>
<filter id="filter19_f_4165_15063" x="16.4567" y="54.6198" width="363.819" height="574.208" filterUnits="userSpaceOnUse" color-interpolation-filters="sRGB">
<feFlood flood-opacity="0" result="BackgroundImageFix"/>
<feBlend mode="normal" in="SourceGraphic" in2="BackgroundImageFix" result="shape"/>
<feGaussianBlur stdDeviation="3.19644" result="effect1_foregroundBlur_4165_15063"/>
</filter>
<filter id="filter20_f_4165_15063" x="168.735" y="19.8906" width="58.5568" height="21.029" filterUnits="userSpaceOnUse" color-interpolation-filters="sRGB">
<feFlood flood-opacity="0" result="BackgroundImageFix"/>
<feBlend mode="normal" in="SourceGraphic" in2="BackgroundImageFix" result="shape"/>
<feGaussianBlur stdDeviation="3.70756" result="effect1_foregroundBlur_4165_15063"/>
</filter>
<filter id="filter21_f_4165_15063" x="175.022" y="21.6681" width="46.4469" height="7.48501" filterUnits="userSpaceOnUse" color-interpolation-filters="sRGB">
<feFlood flood-opacity="0" result="BackgroundImageFix"/>
<feBlend mode="normal" in="SourceGraphic" in2="BackgroundImageFix" result="shape"/>
<feGaussianBlur stdDeviation="0.949134" result="effect1_foregroundBlur_4165_15063"/>
</filter>
<filter id="filter22_i_4165_15063" x="177.432" y="24.1289" width="41.5234" height="6.43613" filterUnits="userSpaceOnUse" color-interpolation-filters="sRGB">
<feFlood flood-opacity="0" result="BackgroundImageFix"/>
<feBlend mode="normal" in="SourceGraphic" in2="BackgroundImageFix" result="shape"/>
<feColorMatrix in="SourceAlpha" type="matrix" values="0 0 0 0 0 0 0 0 0 0 0 0 0 0 0 0 0 0 127 0" result="hardAlpha"/>
<feOffset dy="0.698334"/>
<feGaussianBlur stdDeviation="1.0475"/>
<feComposite in2="hardAlpha" operator="arithmetic" k2="-1" k3="1"/>
<feColorMatrix type="matrix" values="0 0 0 0 0 0 0 0 0 0 0 0 0 0 0 0 0 0 0.297186 0"/>
<feBlend mode="normal" in2="shape" result="effect1_innerShadow_4165_15063"/>
</filter>
<filter id="filter23_f_4165_15063" x="221.393" y="19.6628" width="26.0416" height="26.047" filterUnits="userSpaceOnUse" color-interpolation-filters="sRGB">
<feFlood flood-opacity="0" result="BackgroundImageFix"/>
<feBlend mode="normal" in="SourceGraphic" in2="BackgroundImageFix" result="shape"/>
<feGaussianBlur stdDeviation="3.79654" result="effect1_foregroundBlur_4165_15063"/>
</filter>
<filter id="filter24_f_4165_15063" x="221.393" y="9.82685" width="26.0416" height="26.047" filterUnits="userSpaceOnUse" color-interpolation-filters="sRGB">
<feFlood flood-opacity="0" result="BackgroundImageFix"/>
<feBlend mode="normal" in="SourceGraphic" in2="BackgroundImageFix" result="shape"/>
<feGaussianBlur stdDeviation="3.79654" result="effect1_foregroundBlur_4165_15063"/>
</filter>
<filter id="filter25_i_4165_15063" x="231.238" y="24.1309" width="6.55469" height="6.55713" filterUnits="userSpaceOnUse" color-interpolation-filters="sRGB">
<feFlood flood-opacity="0" result="BackgroundImageFix"/>
<feBlend mode="normal" in="SourceGraphic" in2="BackgroundImageFix" result="shape"/>
<feColorMatrix in="SourceAlpha" type="matrix" values="0 0 0 0 0 0 0 0 0 0 0 0 0 0 0 0 0 0 127 0" result="hardAlpha"/>
<feOffset/>
<feGaussianBlur stdDeviation="1.74583"/>
<feComposite in2="hardAlpha" operator="arithmetic" k2="-1" k3="1"/>
<feColorMatrix type="matrix" values="0 0 0 0 0 0 0 0 0 0 0 0 0 0 0 0 0 0 0.281646 0"/>
<feBlend mode="normal" in2="shape" result="effect1_innerShadow_4165_15063"/>
</filter>
<filter id="filter26_f_4165_15063" x="230.102" y="26.1769" width="8.8981" height="5.84585" filterUnits="userSpaceOnUse" color-interpolation-filters="sRGB">
<feFlood flood-opacity="0" result="BackgroundImageFix"/>
<feBlend mode="normal" in="SourceGraphic" in2="BackgroundImageFix" result="shape"/>
<feGaussianBlur stdDeviation="0.949134" result="effect1_foregroundBlur_4165_15063"/>
</filter>
<filter id="filter27_f_4165_15063" x="230.772" y="23.7687" width="6.35708" height="6.35806" filterUnits="userSpaceOnUse" color-interpolation-filters="sRGB">
<feFlood flood-opacity="0" result="BackgroundImageFix"/>
<feBlend mode="normal" in="SourceGraphic" in2="BackgroundImageFix" result="shape"/>
<feGaussianBlur stdDeviation="0.949134" result="effect1_foregroundBlur_4165_15063"/>
</filter>
<linearGradient id="paint0_linear_4165_15063" x1="344.692" y1="680.245" x2="49.8918" y2="663.307" gradientUnits="userSpaceOnUse">
<stop stop-opacity="0.01"/>
<stop offset="0.0674672"/>
<stop offset="0.928003"/>
<stop offset="1" stop-opacity="0.01"/>
</linearGradient>
<linearGradient id="paint1_linear_4165_15063" x1="374.424" y1="679.286" x2="23.2961" y2="677.353" gradientUnits="userSpaceOnUse">
<stop stop-opacity="0.01"/>
<stop offset="0.0782494"/>
<stop offset="0.921377"/>
<stop offset="1" stop-opacity="0.01"/>
</linearGradient>
</defs>
</svg>
