<svg width="21" height="21" viewBox="0 0 21 21" fill="none" xmlns="http://www.w3.org/2000/svg">
<circle cx="10.5" cy="10.5" r="10.5" fill="#FFD5C8"/>
<path d="M13.0322 9.83675L13.0389 9.84358L13.0459 9.8501C13.897 10.6446 14.435 11.7996 14.435 13.0893C14.435 15.5047 12.5544 17.4352 10.2677 17.4352C7.98098 17.4352 6.10033 15.5047 6.10033 13.0893C6.10033 11.853 6.59468 10.7405 7.38534 9.95064C9.34126 7.9967 9.90325 6.14256 10.2659 3.99027C10.637 6.18735 11.189 7.95094 13.0322 9.83675Z" fill="#FD727A" stroke="#A3343C" stroke-width="0.833468"/>
<path d="M12.3509 13.2723C12.3509 13.4461 12.2101 13.5869 12.0363 13.5869H10.6105V15.0046C10.6105 15.1964 10.455 15.3519 10.2632 15.3519C10.0714 15.3519 9.9159 15.1964 9.9159 15.0046V13.5869H8.49819C8.32444 13.5869 8.18359 13.4461 8.18359 13.2723C8.18359 13.0986 8.32444 12.9577 8.49819 12.9577H9.9159V11.5318C9.9159 11.3401 10.0714 11.1846 10.2632 11.1846C10.455 11.1846 10.6105 11.3401 10.6105 11.5318V12.9577H12.0363C12.2101 12.9577 12.3509 13.0986 12.3509 13.2723Z" fill="#A3343C"/>
</svg>
