<svg width="28" height="28" viewBox="0 0 28 28" fill="none" xmlns="http://www.w3.org/2000/svg">
<path fill-rule="evenodd" clip-rule="evenodd" d="M14.0017 19.4421C15.676 19.4421 17.1123 18.0299 17.1123 16.1901C17.1123 14.5726 16.1744 12.6028 15.036 10.8726C14.7092 10.3779 14.3642 9.8954 14.0017 9.42621C13.6393 9.89544 13.2943 10.3779 12.9675 10.8726C11.8298 12.6036 10.8912 14.5718 10.8912 16.1908C10.8912 18.0299 12.3275 19.4421 14.0017 19.4421ZM12.9885 8.19755C11.616 9.92934 9.33594 13.2498 9.33594 16.1901C9.33594 18.8449 11.4247 20.9974 14.0017 20.9974C16.5788 20.9974 18.6675 18.8449 18.6675 16.1901C18.6675 13.2506 16.3875 9.93012 15.015 8.19755C14.424 7.45103 14.0017 7 14.0017 7C14.0017 7 13.5787 7.45103 12.9885 8.19755Z" fill="white"/>
<path fill-rule="evenodd" clip-rule="evenodd" d="M6.89417 3.78536C4.45234 5.48301 2.69936 7.99915 1.95283 10.8779C1.2063 13.7566 1.5156 16.8076 2.82468 19.4779C4.13377 22.1483 6.35606 24.2614 9.0889 25.4345C11.8218 26.6075 14.8844 26.7629 17.7219 25.8725L18.1869 27.3562C14.9948 28.3575 11.5497 28.1824 8.47551 26.8627C5.40136 25.5429 2.90157 23.1657 1.42898 20.1618C-0.043615 17.1578 -0.391607 13.7258 0.44804 10.4874C1.28769 7.24903 3.25944 4.41846 6.00611 2.50849L6.89494 3.78536H6.89417ZM21.1093 24.2107C23.5498 22.5125 25.3015 19.9965 26.0472 17.1184C26.7929 14.2402 26.4834 11.1902 25.1745 8.5206C23.8657 5.851 21.6442 3.73832 18.9123 2.56515C16.1803 1.39198 13.1186 1.23588 10.2815 2.12512L9.81651 0.640615C13.0083 -0.359713 16.4528 -0.18399 19.5262 1.13596C22.5997 2.45592 25.0988 4.83283 26.5711 7.83626C28.0434 10.8397 28.3915 14.2711 27.5523 17.509C26.7132 20.7469 24.7423 23.5773 21.9966 25.4875L21.1077 24.2107H21.1093Z" fill="white"/>
<path fill-rule="evenodd" clip-rule="evenodd" d="M6.22663 3.10995H0.783203V1.55469H7.7819V8.55338H6.22663V3.10995ZM21.7793 24.8837H27.2227V26.4389H20.224V19.4402H21.7793V24.8837Z" fill="white"/>
</svg>
