<svg width="30" height="30" viewBox="0 0 30 30" fill="none" xmlns="http://www.w3.org/2000/svg">
<path d="M25.6541 4.74704C22.8598 1.95274 19.1446 0.414062 15.1924 0.414062C11.2402 0.414062 7.52536 1.95274 4.73071 4.74704C-0.0861368 9.56424 -0.965983 17.1549 2.57669 22.9332L0.578038 28.8661C0.486715 29.138 0.557145 29.4383 0.759675 29.6408C0.962542 29.8443 1.26245 29.9134 1.5344 29.8224L7.4673 27.8238C9.78946 29.2482 12.4546 30.0001 15.1984 30.0001C19.1471 30.0001 22.8607 28.4624 25.653 25.6702C31.4214 19.9017 31.4222 10.5158 25.6541 4.74704ZM24.5865 24.6025C22.0791 27.1096 18.7453 28.4905 15.1989 28.4902C12.6234 28.4902 10.1262 27.7539 7.97732 26.3604C7.85331 26.2802 7.71076 26.2388 7.56687 26.2388C7.48566 26.2388 7.40444 26.2516 7.32592 26.2782L2.49493 27.9058L4.12254 23.0748C4.196 22.8561 4.16567 22.6162 4.04032 22.4231C0.655686 17.2028 1.395 10.2179 5.79837 5.81392C8.30756 3.30508 11.6437 1.92307 15.1921 1.92307C18.7409 1.92307 22.0767 3.30474 24.5858 5.81392C29.7656 10.9944 29.766 19.4221 24.5865 24.6025Z" fill="white"/>
<path d="M20.7149 11.8863H18.115V9.28637C18.115 8.76043 17.6885 8.33398 17.1626 8.33398H12.8383C12.3123 8.33398 11.8859 8.76043 11.8859 9.28637V11.8863H9.28637C8.76043 11.8863 8.33398 12.3128 8.33398 12.8387V17.163C8.33398 17.689 8.76043 18.1154 9.28637 18.1154H11.8859V20.7149C11.8859 21.2409 12.3123 21.6673 12.8383 21.6673H17.1626C17.6885 21.6673 18.115 21.2409 18.115 20.7149V18.1154H20.7149C21.2409 18.1154 21.6673 17.689 21.6673 17.163V12.8387C21.6673 12.3123 21.2409 11.8863 20.7149 11.8863ZM19.7626 16.2103H17.1626C16.6367 16.2103 16.2102 16.6368 16.2102 17.1627V19.7622H13.7906V17.1627C13.7906 16.6368 13.3642 16.2103 12.8383 16.2103H10.2387V13.7907H12.8383C13.3642 13.7907 13.7906 13.3643 13.7906 12.8384V10.2384H16.2102V12.8384C16.2102 13.3643 16.6367 13.7907 17.1626 13.7907H19.7626V16.2103Z" fill="white"/>
</svg>
