<svg width="100" height="100" viewBox="0 0 100 100" fill="none" xmlns="http://www.w3.org/2000/svg">
<path d="M100 50C100 77.6142 77.6142 100 50 100C22.3858 100 0 77.6142 0 50C0 22.3858 22.3858 0 50 0C77.6142 0 100 22.3858 100 50Z" fill="#0F7ADC"/>
<path d="M37.9209 95.082V85.2528L64.2708 58.0588C70.6783 51.5788 73.882 45.9725 73.882 41.24C73.882 37.5267 72.7661 34.6508 70.5343 32.6121C68.3745 30.5007 65.6027 29.445 62.219 29.445C55.8835 29.445 51.2038 32.6121 48.1801 38.9465L37.7049 32.7214C40.0807 27.6248 43.4285 23.7659 47.7481 21.1448C52.0678 18.5237 56.8554 17.2131 62.111 17.2131C68.7344 17.2131 74.422 19.3246 79.1736 23.5475C83.9252 27.7704 86.301 33.5223 86.301 40.8031C86.301 48.5936 82.0174 56.8938 73.4501 65.7037L56.3874 82.9593H87.7049V95.082H37.9209Z" fill="white"/>
</svg>
