<svg width="25" height="25" viewBox="0 0 25 25" fill="none" xmlns="http://www.w3.org/2000/svg">
<path d="M0 6C0 2.68629 2.68629 0 6 0H19C22.3137 0 25 2.68629 25 6V19C25 22.3137 22.3137 25 19 25H6C2.68629 25 0 22.3137 0 19V6Z" fill="#3CAD51"/>
<path d="M12.3903 14.584L16.4961 9.35281C16.5395 9.31502 16.5953 9.29396 16.6532 9.2938C16.7165 9.29363 16.7772 9.31834 16.8224 9.3626C16.8675 9.40686 16.8934 9.46711 16.8945 9.53032C16.8956 9.59354 16.8717 9.65464 16.8281 9.70041L16.8087 9.72077L16.7912 9.74273L12.0706 15.6434C12.0511 15.6617 12.0287 15.6766 12.0042 15.6875C11.9747 15.7007 11.9429 15.7078 11.9106 15.7084C11.8783 15.709 11.8462 15.7031 11.8162 15.691C11.7863 15.679 11.7591 15.661 11.7363 15.6383C11.7362 15.6382 11.7362 15.6382 11.7361 15.6381L8.6051 12.5059C8.56594 12.4611 8.54474 12.4032 8.54579 12.3434C8.54689 12.2811 8.57214 12.2216 8.61623 12.1775C8.66032 12.1334 8.71979 12.1082 8.78213 12.1071C8.84183 12.106 8.89969 12.1272 8.94455 12.1663L11.4192 14.6422L11.9376 15.1608L12.3903 14.584Z" fill="white" stroke="white" stroke-width="1.3"/>
</svg>
