<svg width="25" height="25" viewBox="0 0 25 25" fill="none" xmlns="http://www.w3.org/2000/svg">
<path d="M0 6C0 2.68629 2.68629 0 6 0H19C22.3137 0 25 2.68629 25 6V18.8899C25 22.2037 22.3137 24.8899 19 24.8899H6C2.68629 24.8899 0 22.2037 0 18.8899V6Z" fill="#2B96F7"/>
<mask id="path-2-inside-1_120_203" fill="white">
<path d="M11.3574 6.46201C12.9808 4.61797 15.7545 4.47267 17.5528 6.13746C19.3511 7.80226 19.4928 10.6467 17.8694 12.4908L12.6426 18.428C11.0192 20.2721 8.24545 20.4174 6.44719 18.7526C4.64893 17.0878 4.50717 14.2433 6.13055 12.3992L11.3574 6.46201Z"/>
<path d="M7.82247 10.4774L14.3355 16.5058L12.6444 18.4279C11.0206 20.2717 8.24573 20.4173 6.44719 18.7526C4.64893 17.0878 4.50717 14.2433 6.13055 12.3992L7.82247 10.4774Z"/>
</mask>
<path d="M7.82247 10.4774L14.3355 16.5058L12.6444 18.4279C11.0206 20.2717 8.24573 20.4173 6.44719 18.7526C4.64893 17.0878 4.50717 14.2433 6.13055 12.3992L7.82247 10.4774Z" fill="white"/>
<path d="M6.88877 18.2756C5.35038 16.8514 5.22708 14.4092 6.61843 12.8288L5.64267 11.9697C3.78726 14.0774 3.94747 17.3242 6.00561 19.2295L6.88877 18.2756ZM6.44719 18.7526L7.33025 17.7985L5.56403 19.7065L6.44719 18.7526ZM12.6426 18.428L13.6184 19.287L13.6184 19.287L12.6426 18.428ZM17.8694 12.4908L16.8937 11.6318L16.8937 11.6318L17.8694 12.4908ZM11.3574 6.46201L10.3816 5.603L10.3816 5.603L11.3574 6.46201ZM7.82247 10.4774L8.70553 9.52332L7.72739 8.61797L6.84671 9.61837L7.82247 10.4774ZM14.3355 16.5058L15.3115 17.3646L16.1489 16.4129L15.2186 15.5518L14.3355 16.5058ZM12.6444 18.4279L13.62 19.2871L13.6204 19.2866L12.6444 18.4279ZM16.8937 11.6318L11.6669 17.569L13.6184 19.287L18.8452 13.3498L16.8937 11.6318ZM7.10632 13.2583L12.3331 7.32101L10.3816 5.603L5.15479 11.5402L7.10632 13.2583ZM11.6669 17.569C10.5242 18.867 8.59003 18.9648 7.33035 17.7986L5.56403 19.7065C7.90087 21.8699 11.5143 21.6771 13.6184 19.287L11.6669 17.569ZM16.6697 7.09142C17.9482 8.27504 18.053 10.3149 16.8937 11.6318L18.8452 13.3498C20.9327 10.9786 20.754 7.32948 18.436 5.1835L16.6697 7.09142ZM18.436 5.1835C16.0991 3.02011 12.4857 3.21293 10.3816 5.603L12.3331 7.32101C13.4758 6.02301 15.41 5.92523 16.6697 7.09142L18.436 5.1835ZM6.93941 11.4314L13.4525 17.4599L15.2186 15.5518L8.70553 9.52332L6.93941 11.4314ZM13.3596 15.6471L11.6684 17.5691L13.6204 19.2866L15.3115 17.3646L13.3596 15.6471ZM7.10632 13.2583L8.79823 11.3364L6.84671 9.61837L5.15479 11.5402L7.10632 13.2583ZM11.6688 17.5687C10.5256 18.8668 8.59014 18.9647 7.33025 17.7985L5.56413 19.7066C7.90131 21.8699 11.5156 21.6766 13.62 19.2871L11.6688 17.5687Z" fill="white" mask="url(#path-2-inside-1_120_203)"/>
</svg>
