<svg width="24" height="24" viewBox="0 0 24 24" fill="none" xmlns="http://www.w3.org/2000/svg">
<g clip-path="url(#clip0_41_2358)">
<mask id="path-1-inside-1_41_2358" fill="white">
<path d="M12 22.5C9.21523 22.5 6.54451 21.3938 4.57538 19.4246C2.60625 17.4555 1.5 14.7848 1.5 12C1.5 9.21523 2.60625 6.54451 4.57538 4.57538C6.54451 2.60625 9.21523 1.5 12 1.5C14.7848 1.5 17.4555 2.60625 19.4246 4.57538C21.3938 6.54451 22.5 9.21523 22.5 12C22.5 14.7848 21.3938 17.4555 19.4246 19.4246C17.4555 21.3938 14.7848 22.5 12 22.5ZM12 24C15.1826 24 18.2348 22.7357 20.4853 20.4853C22.7357 18.2348 24 15.1826 24 12C24 8.8174 22.7357 5.76516 20.4853 3.51472C18.2348 1.26428 15.1826 0 12 0C8.8174 0 5.76516 1.26428 3.51472 3.51472C1.26428 5.76516 0 8.8174 0 12C0 15.1826 1.26428 18.2348 3.51472 20.4853C5.76516 22.7357 8.8174 24 12 24Z"/>
<path d="M12 22.5C9.21523 22.5 6.54451 21.3938 4.57538 19.4246C2.60625 17.4555 1.5 14.7848 1.5 12C1.5 9.21523 2.60625 6.54451 4.57538 4.57538C6.54451 2.60625 9.21523 1.5 12 1.5C14.7848 1.5 17.4555 2.60625 19.4246 4.57538C21.3938 6.54451 22.5 9.21523 22.5 12C22.5 14.7848 21.3938 17.4555 19.4246 19.4246C17.4555 21.3938 14.7848 22.5 12 22.5Z"/>
</mask>
<path d="M12 22.5C9.21523 22.5 6.54451 21.3938 4.57538 19.4246C2.60625 17.4555 1.5 14.7848 1.5 12C1.5 9.21523 2.60625 6.54451 4.57538 4.57538C6.54451 2.60625 9.21523 1.5 12 1.5C14.7848 1.5 17.4555 2.60625 19.4246 4.57538C21.3938 6.54451 22.5 9.21523 22.5 12C22.5 14.7848 21.3938 17.4555 19.4246 19.4246C17.4555 21.3938 14.7848 22.5 12 22.5ZM12 24C15.1826 24 18.2348 22.7357 20.4853 20.4853C22.7357 18.2348 24 15.1826 24 12C24 8.8174 22.7357 5.76516 20.4853 3.51472C18.2348 1.26428 15.1826 0 12 0C8.8174 0 5.76516 1.26428 3.51472 3.51472C1.26428 5.76516 0 8.8174 0 12C0 15.1826 1.26428 18.2348 3.51472 20.4853C5.76516 22.7357 8.8174 24 12 24Z" fill="#3CAD51"/>
<path d="M12 22.5C9.21523 22.5 6.54451 21.3938 4.57538 19.4246C2.60625 17.4555 1.5 14.7848 1.5 12C1.5 9.21523 2.60625 6.54451 4.57538 4.57538C6.54451 2.60625 9.21523 1.5 12 1.5C14.7848 1.5 17.4555 2.60625 19.4246 4.57538C21.3938 6.54451 22.5 9.21523 22.5 12C22.5 14.7848 21.3938 17.4555 19.4246 19.4246C17.4555 21.3938 14.7848 22.5 12 22.5Z" fill="white"/>
<path d="M1.5 12H0.85H1.5ZM12 1.5V0.85V1.5ZM12 21.85C9.38762 21.85 6.88223 20.8122 5.035 18.965L4.11576 19.8842C6.20679 21.9753 9.04284 23.15 12 23.15V21.85ZM5.035 18.965C3.18776 17.1178 2.15 14.6124 2.15 12H0.85C0.85 14.9572 2.02473 17.7932 4.11576 19.8842L5.035 18.965ZM2.15 12C2.15 9.38762 3.18776 6.88223 5.035 5.035L4.11576 4.11576C2.02473 6.20679 0.85 9.04284 0.85 12H2.15ZM5.035 5.035C6.88223 3.18776 9.38762 2.15 12 2.15V0.85C9.04284 0.85 6.20679 2.02473 4.11576 4.11576L5.035 5.035ZM12 2.15C14.6124 2.15 17.1178 3.18776 18.965 5.035L19.8842 4.11576C17.7932 2.02473 14.9572 0.85 12 0.85V2.15ZM18.965 5.035C20.8122 6.88223 21.85 9.38762 21.85 12H23.15C23.15 9.04284 21.9753 6.20679 19.8842 4.11576L18.965 5.035ZM21.85 12C21.85 14.6124 20.8122 17.1178 18.965 18.965L19.8842 19.8842C21.9753 17.7932 23.15 14.9572 23.15 12H21.85ZM18.965 18.965C17.1178 20.8122 14.6124 21.85 12 21.85V23.15C14.9572 23.15 17.7932 21.9753 19.8842 19.8842L18.965 18.965ZM12 24V25.3V24ZM24 12H25.3H24ZM12 0V-1.3V0ZM0 12H-1.3H0ZM12 25.3C15.5274 25.3 18.9103 23.8988 21.4045 21.4045L19.566 19.566C17.5594 21.5727 14.8378 22.7 12 22.7V25.3ZM21.4045 21.4045C23.8988 18.9103 25.3 15.5274 25.3 12H22.7C22.7 14.8378 21.5727 17.5594 19.566 19.566L21.4045 21.4045ZM25.3 12C25.3 8.47262 23.8988 5.08971 21.4045 2.59548L19.566 4.43396C21.5727 6.4406 22.7 9.16218 22.7 12H25.3ZM21.4045 2.59548C18.9103 0.101246 15.5274 -1.3 12 -1.3V1.3C14.8378 1.3 17.5594 2.42732 19.566 4.43396L21.4045 2.59548ZM12 -1.3C8.47262 -1.3 5.08971 0.101246 2.59548 2.59548L4.43396 4.43396C6.4406 2.42732 9.16218 1.3 12 1.3V-1.3ZM2.59548 2.59548C0.101246 5.08971 -1.3 8.47262 -1.3 12H1.3C1.3 9.16218 2.42732 6.4406 4.43396 4.43396L2.59548 2.59548ZM-1.3 12C-1.3 15.5274 0.101246 18.9103 2.59548 21.4045L4.43396 19.566C2.42732 17.5594 1.3 14.8378 1.3 12H-1.3ZM2.59548 21.4045C5.08971 23.8988 8.47262 25.3 12 25.3V22.7C9.16218 22.7 6.4406 21.5727 4.43396 19.566L2.59548 21.4045Z" fill="#3CAD51" mask="url(#path-1-inside-1_41_2358)"/>
<path d="M11.7264 14.5267L16.9215 7.90751C17.0091 7.82531 17.1248 7.77924 17.2452 7.77891C17.37 7.77856 17.4899 7.82735 17.5791 7.91472C17.6682 8.00209 17.7193 8.12103 17.7215 8.24581C17.7236 8.3706 17.6765 8.4912 17.5904 8.58156L17.571 8.60192L17.5535 8.62388L11.5838 16.0859C11.5431 16.1263 11.4954 16.159 11.443 16.1824C11.3848 16.2084 11.3219 16.2224 11.2581 16.2236C11.1943 16.2248 11.131 16.2131 11.0718 16.1893C11.0128 16.1655 10.9592 16.1301 10.9141 16.0852C10.914 16.0851 10.9138 16.085 10.9137 16.0849L6.95501 12.1247C6.87498 12.0355 6.83155 11.9192 6.83367 11.7991C6.83584 11.6761 6.88569 11.5586 6.97272 11.4716L6.5131 11.012L6.97272 11.4716C7.05975 11.3846 7.17716 11.3347 7.30021 11.3326C7.42024 11.3305 7.53649 11.3739 7.6257 11.4538L10.7553 14.5849L11.2737 15.1035L11.7264 14.5267Z" fill="#3CAD51" stroke="#3CAD51" stroke-width="1.3"/>
</g>
<defs>
<clipPath id="clip0_41_2358">
<rect width="24" height="24" fill="white"/>
</clipPath>
</defs>
</svg>
