<svg width="24" height="24" viewBox="0 0 24 24" fill="none" xmlns="http://www.w3.org/2000/svg">
<rect x="0.65" y="0.65" width="22.7" height="22.7" rx="11.35" fill="white"/>
<path d="M8.87545 6.03516H8.30024C7.90359 6.03516 7.52319 6.19272 7.24272 6.47319C6.96225 6.75366 6.80469 7.13406 6.80469 7.53071V16.504C6.80469 16.9006 6.96225 17.281 7.24272 17.5615C7.52319 17.842 7.90359 17.9996 8.30024 17.9996H15.778C16.1746 17.9996 16.555 17.842 16.8355 17.5615C17.116 17.281 17.2735 16.9006 17.2735 16.504V7.53071C17.2735 7.13406 17.116 6.75366 16.8355 6.47319C16.555 6.19272 16.1746 6.03516 15.778 6.03516H15.2028" stroke="#FA2E39" stroke-width="1.3" stroke-linecap="round" stroke-linejoin="round"/>
<path d="M13.7068 5H10.3705C9.54458 5 8.875 5 8.875 6.03538C8.875 7.53093 9.54458 7.53093 10.3705 7.53093H13.7068C14.5327 7.53093 15.2023 7.76103 15.2023 6.03538C15.2023 5 14.5327 5 13.7068 5Z" stroke="#FA2E39" stroke-width="1.3" stroke-linecap="round" stroke-linejoin="round"/>
<path d="M9.50757 9.65918H14.627M9.50757 11.9025H12.5562M9.50757 14.1458H11.7509" stroke="#FA2E39" stroke-width="1.3" stroke-linecap="round" stroke-linejoin="round"/>
<rect x="0.65" y="0.65" width="22.7" height="22.7" rx="11.35" stroke="#FA2E39" stroke-width="1.3"/>
</svg>
