<svg width="25" height="25" viewBox="0 0 25 25" fill="none" xmlns="http://www.w3.org/2000/svg">
<path d="M0 6C0 2.68629 2.68629 0 6 0H19C22.3137 0 25 2.68629 25 6V19C25 22.3137 22.3137 25 19 25H6C2.68629 25 0 22.3137 0 19V6Z" fill="#FC3E38"/>
<path d="M8.57143 5.28491H7.85714C7.3646 5.28491 6.89223 5.48057 6.54394 5.82886C6.19566 6.17714 6 6.64951 6 7.14205V18.2849C6 18.7775 6.19566 19.2498 6.54394 19.5981C6.89223 19.9464 7.3646 20.1421 7.85714 20.1421H17.1429C17.6354 20.1421 18.1078 19.9464 18.4561 19.5981C18.8043 19.2498 19 18.7775 19 18.2849V7.14205C19 6.64951 18.8043 6.17714 18.4561 5.82886C18.1078 5.48057 17.6354 5.28491 17.1429 5.28491H16.4286" stroke="white" stroke-width="1.3" stroke-linecap="round" stroke-linejoin="round"/>
<path d="M14.5697 4H10.4268C9.40117 4 8.5697 4 8.5697 5.28571C8.5697 7.14286 9.40117 7.14286 10.4268 7.14286H14.5697C15.5954 7.14286 16.4268 7.42859 16.4268 5.28571C16.4268 4 15.5954 4 14.5697 4Z" stroke="white" stroke-width="1.3" stroke-linecap="round" stroke-linejoin="round"/>
<path d="M9.35709 9.78589H15.7142M9.35709 12.5716H13.1428M9.35709 15.3573H12.1428" stroke="white" stroke-width="1.3" stroke-linecap="round" stroke-linejoin="round"/>
</svg>
