<svg width="33" height="33" viewBox="0 0 33 33" fill="none" xmlns="http://www.w3.org/2000/svg">
<g filter="url(#filter0_d_105_126)">
<path d="M12.5937 23.5547V18.1641L8.57031 21.1328C9.70312 22.1875 11.0703 23.0078 12.5937 23.5547ZM20.4062 23.5547C21.9297 23.0078 23.2969 22.1875 24.4297 21.1328L20.4062 18.125V23.5547ZM5.44531 16.4062C5.5625 16.7969 5.71875 17.1484 5.91406 17.5391L7.4375 16.4062H5.44531ZM25.5625 16.4062L27.0859 17.5391C27.2422 17.1875 27.3984 16.7969 27.5547 16.4062H25.5625Z" fill="#2A5F9E"/>
<path d="M13.1797 14.8438H5.01562C5.13281 15.3906 5.28906 15.8984 5.44531 16.4062H7.4375L5.91406 17.5391C6.22656 18.2031 6.57812 18.7891 7.00781 19.375L11.0312 16.4062H12.5937V17.1875L8.02344 20.5469L8.57031 21.0937L12.5937 18.1641V23.5547C13.1016 23.75 13.6094 23.8672 14.1562 23.9844V14.8438H13.1797ZM27.9844 14.8438H18.8438V23.9844C19.3906 23.8672 19.8984 23.7109 20.4062 23.5547V18.1641L24.4297 21.0937C24.9766 20.5859 25.4453 20.0391 25.9141 19.4531L21.7344 16.4062H24.3906L26.7734 18.1641C26.8906 17.9687 27.0078 17.7344 27.0859 17.5391L25.5625 16.4062H27.5547C27.7109 15.8984 27.8672 15.3906 27.9844 14.8438Z" fill="white"/>
<path d="M7.00781 19.375C7.32031 19.8047 7.63281 20.1953 7.98438 20.5859L12.5938 17.2266V16.4453H11.0313L7.00781 19.375ZM21.7734 16.4062L25.9531 19.4531C26.1094 19.2578 26.2266 19.0625 26.3828 18.8672C26.4219 18.8281 26.4219 18.7891 26.4609 18.7891C26.5781 18.5938 26.7344 18.3594 26.8516 18.1641L24.3906 16.4062H21.7734Z" fill="#ED4C5C"/>
<path d="M20.4062 1.44531V6.83594L24.4297 3.86719C23.2969 2.8125 21.9297 1.99219 20.4062 1.44531ZM12.5937 1.44531C11.0703 1.99219 9.70312 2.8125 8.57031 3.86719L12.5937 6.875V1.44531ZM27.5547 8.59375C27.4375 8.20312 27.2812 7.85156 27.0859 7.46094L25.5625 8.59375H27.5547ZM7.4375 8.59375L5.91406 7.46094C5.75781 7.85156 5.60156 8.20312 5.44531 8.59375H7.4375Z" fill="#2A5F9E"/>
<path d="M19.8203 10.1563H27.9453C27.8281 9.60938 27.6719 9.10156 27.5156 8.59375H25.5234L27.0469 7.46094C26.7344 6.79688 26.3828 6.21094 25.9531 5.625L21.9688 8.59375H20.4063V7.8125L24.9766 4.45313L24.4297 3.90625L20.4063 6.83594V1.44531C19.8984 1.25 19.3906 1.13281 18.8438 1.01562V10.1563H19.8203ZM5.01562 10.1563H14.1562V1.01562C13.6094 1.13281 13.1016 1.28906 12.5938 1.44531V6.83594L8.57031 3.90625C8.02344 4.41406 7.55469 4.96094 7.08594 5.54688L11.2656 8.59375H8.60938L6.22656 6.83594C6.10938 7.03125 5.99219 7.26563 5.91406 7.46094L7.4375 8.59375H5.44531C5.28906 9.10156 5.13281 9.60938 5.01562 10.1563Z" fill="white"/>
<path d="M25.9922 5.625C25.6797 5.19531 25.3672 4.80469 25.0156 4.41406L20.4063 7.77344V8.55469H21.9688L25.9922 5.625ZM11.2266 8.59375L7.08594 5.54687C6.92969 5.74219 6.8125 5.9375 6.65625 6.13281C6.61719 6.17187 6.61719 6.21094 6.57812 6.21094C6.46094 6.40625 6.30469 6.64062 6.1875 6.83594L8.57031 8.59375H11.2266Z" fill="#ED4C5C"/>
<path d="M27.9844 10.1562H18.8438V1.01562C18.1016 0.859375 17.3203 0.78125 16.5 0.78125C15.6797 0.78125 14.8984 0.859375 14.1562 1.01562V10.1562H5.01562C4.85937 10.8984 4.78125 11.6797 4.78125 12.5C4.78125 13.3203 4.85937 14.1016 5.01562 14.8438H14.1562V23.9844C14.8984 24.1406 15.6797 24.2188 16.5 24.2188C17.3203 24.2188 18.1016 24.1406 18.8438 23.9844V14.8438H27.9844C28.1406 14.1016 28.2188 13.3203 28.2188 12.5C28.2188 11.6797 28.1406 10.8984 27.9844 10.1562Z" fill="#ED4C5C"/>
</g>
<defs>
<filter id="filter0_d_105_126" x="0" y="0" width="33" height="33" filterUnits="userSpaceOnUse" color-interpolation-filters="sRGB">
<feFlood flood-opacity="0" result="BackgroundImageFix"/>
<feColorMatrix in="SourceAlpha" type="matrix" values="0 0 0 0 0 0 0 0 0 0 0 0 0 0 0 0 0 0 127 0" result="hardAlpha"/>
<feOffset dy="4"/>
<feGaussianBlur stdDeviation="2"/>
<feComposite in2="hardAlpha" operator="out"/>
<feColorMatrix type="matrix" values="0 0 0 0 0 0 0 0 0 0 0 0 0 0 0 0 0 0 0.25 0"/>
<feBlend mode="normal" in2="BackgroundImageFix" result="effect1_dropShadow_105_126"/>
<feBlend mode="normal" in="SourceGraphic" in2="effect1_dropShadow_105_126" result="shape"/>
</filter>
</defs>
</svg>
