<svg width="22" height="22" viewBox="0 0 22 22" fill="none" xmlns="http://www.w3.org/2000/svg">
<ellipse cx="11.4164" cy="10.7346" rx="10.473" ry="10.4143" fill="#B6E7FD"/>
<rect x="0.116097" y="0.570503" width="6.14051" height="14.0809" rx="3.07026" transform="matrix(0.839705 0.542103 -0.561118 0.826882 12.2528 3.33173)" fill="#4980D6" stroke="#2F3C7E" stroke-width="0.833468"/>
<mask id="path-3-inside-1_2_7568" fill="white">
<path d="M8.03516 9.29395L14.0256 13.1526L12.1029 15.9797C11.0002 17.6009 8.76531 18.0514 7.11108 16.9858C5.45686 15.9203 5.00972 13.7422 6.11237 12.121L8.03516 9.29395Z"/>
</mask>
<path d="M8.03516 9.29395L14.0256 13.1526L12.1029 15.9797C11.0002 17.6009 8.76531 18.0514 7.11108 16.9858C5.45686 15.9203 5.00972 13.7422 6.11237 12.121L8.03516 9.29395Z" fill="white"/>
<path d="M8.03516 9.29395L8.48897 8.6267L7.80815 8.18816L7.35433 8.85541L8.03516 9.29395ZM14.0256 13.1526L14.7065 13.5911L15.1603 12.9239L14.4795 12.4853L14.0256 13.1526ZM7.58134 9.96119L13.5718 13.8198L14.4795 12.4853L8.48897 8.6267L7.58134 9.96119ZM13.3448 12.714L11.422 15.5411L12.7837 16.4182L14.7065 13.5911L13.3448 12.714ZM6.7932 12.5596L8.71598 9.73249L7.35433 8.85541L5.43154 11.6825L6.7932 12.5596ZM7.5649 16.3186C6.28669 15.4952 5.94118 13.8123 6.7932 12.5596L5.43154 11.6825C4.07826 13.6722 4.62703 16.3453 6.65727 17.6531L7.5649 16.3186ZM11.422 15.5411C10.57 16.7938 8.84311 17.1419 7.5649 16.3186L6.65727 17.6531C8.6875 18.9608 11.4304 18.4079 12.7837 16.4182L11.422 15.5411Z" fill="#2F3C7E" mask="url(#path-3-inside-1_2_7568)"/>
</svg>
