<svg width="23" height="23" viewBox="0 0 23 23" fill="none" xmlns="http://www.w3.org/2000/svg">
<path d="M2.51563 13.6562C1.12628 13.6562 0 12.53 0 11.1406C0 9.75128 1.12628 8.625 2.51562 8.625H19.7656C21.155 8.625 22.2812 9.75128 22.2812 11.1406C22.2812 12.53 21.155 13.6562 19.7656 13.6562H2.51563Z" fill="#2F3C7E"/>
<path d="M8.625 2.51562C8.625 1.12628 9.75128 -6.073e-08 11.1406 0C12.53 6.073e-08 13.6562 1.12628 13.6562 2.51562L13.6562 20.4844C13.6562 21.8737 12.53 23 11.1406 23C9.75128 23 8.625 21.8737 8.625 20.4844L8.625 2.51562Z" fill="#2F3C7E"/>
</svg>
